<svg width="44" height="45" viewBox="0 0 44 45" fill="none" xmlns="http://www.w3.org/2000/svg">
<ellipse cx="22" cy="22.2142" rx="22" ry="22.015" fill="#DF643A"/>
<g clip-path="url(#clip0_1_4299)">
<path d="M21.9984 13.8745C17.3959 13.8745 13.665 17.6079 13.665 22.2135C13.665 26.3755 16.7125 29.8254 20.6967 30.4517V24.6235H18.58V22.2135H20.6967V20.3764C20.6967 18.2867 21.94 17.1326 23.8442 17.1326C24.7559 17.1326 25.7092 17.2952 25.7092 17.2952V19.3466H24.6592C23.6234 19.3466 23.3009 19.9895 23.3009 20.6491V22.2135H25.6117L25.2425 24.6235H23.3009V30.4517C27.2842 29.8262 30.3317 26.3747 30.3317 22.2135C30.3317 17.6079 26.6009 13.8745 21.9984 13.8745Z" fill="#12130F"/>
</g>
<defs>
<clipPath id="clip0_1_4299">
<rect width="20" height="20.0137" fill="white" transform="translate(12 12.2075)"/>
</clipPath>
</defs>
</svg>
