<svg width="44" height="45" viewBox="0 0 44 45" fill="none" xmlns="http://www.w3.org/2000/svg">
<ellipse cx="22" cy="22.2142" rx="22" ry="22.015" fill="#DF643A" fill-opacity="0.1"/>
<g opacity="0.8" clip-path="url(#clip0_1_4304)">
<path d="M21.9984 19.7118C21.3353 19.7118 20.6994 19.9754 20.2306 20.4446C19.7618 20.9137 19.4984 21.55 19.4984 22.2135C19.4984 22.877 19.7618 23.5133 20.2306 23.9825C20.6994 24.4517 21.3353 24.7152 21.9984 24.7152C22.6614 24.7152 23.2973 24.4517 23.7661 23.9825C24.235 23.5133 24.4984 22.877 24.4984 22.2135C24.4984 21.55 24.235 20.9137 23.7661 20.4446C23.2973 19.9754 22.6614 19.7118 21.9984 19.7118ZM21.9984 18.044C23.1034 18.044 24.1632 18.4833 24.9447 19.2652C25.7261 20.0472 26.165 21.1077 26.165 22.2135C26.165 23.3194 25.7261 24.3799 24.9447 25.1618C24.1632 25.9438 23.1034 26.383 21.9984 26.383C20.8933 26.383 19.8335 25.9438 19.0521 25.1618C18.2707 24.3799 17.8317 23.3194 17.8317 22.2135C17.8317 21.1077 18.2707 20.0472 19.0521 19.2652C19.8335 18.4833 20.8933 18.044 21.9984 18.044ZM27.415 17.8355C27.415 18.112 27.3053 18.3771 27.1099 18.5726C26.9146 18.7681 26.6496 18.8779 26.3734 18.8779C26.0971 18.8779 25.8322 18.7681 25.6368 18.5726C25.4415 18.3771 25.3317 18.112 25.3317 17.8355C25.3317 17.5591 25.4415 17.294 25.6368 17.0985C25.8322 16.903 26.0971 16.7932 26.3734 16.7932C26.6496 16.7932 26.9146 16.903 27.1099 17.0985C27.3053 17.294 27.415 17.5591 27.415 17.8355ZM21.9984 15.5423C19.9367 15.5423 19.6 15.5482 18.6409 15.5907C17.9875 15.6215 17.5492 15.7091 17.1425 15.8675C16.7809 16.0076 16.52 16.1752 16.2425 16.4538C15.9817 16.7059 15.7812 17.0138 15.6559 17.3544C15.4975 17.763 15.41 18.2008 15.38 18.8537C15.3367 19.7744 15.3317 20.0963 15.3317 22.2135C15.3317 24.2766 15.3375 24.6135 15.38 25.5733C15.4109 26.2263 15.4984 26.6657 15.6559 27.0719C15.7975 27.4346 15.9642 27.6956 16.2409 27.9725C16.5217 28.2527 16.7825 28.4203 17.1409 28.5587C17.5525 28.718 17.9909 28.8064 18.6409 28.8364C19.5609 28.8798 19.8825 28.8848 21.9984 28.8848C24.06 28.8848 24.3967 28.8789 25.3559 28.8364C26.0075 28.8055 26.4467 28.718 26.8534 28.5604C27.2142 28.4194 27.4767 28.2518 27.7534 27.975C28.0342 27.6939 28.2017 27.4329 28.34 27.0744C28.4984 26.6632 28.5867 26.2238 28.6167 25.5733C28.66 24.6527 28.665 24.3308 28.665 22.2135C28.665 20.1505 28.6592 19.8136 28.6167 18.8537C28.5859 18.2016 28.4984 17.7613 28.34 17.3544C28.2144 17.0142 28.0143 16.7064 27.7542 16.4538C27.5023 16.1926 27.1946 15.9919 26.8542 15.8667C26.4459 15.7083 26.0075 15.6207 25.3559 15.5907C24.4359 15.5473 24.1142 15.5423 21.9984 15.5423ZM21.9984 13.8745C24.2625 13.8745 24.545 13.8829 25.4334 13.9245C26.3209 13.9662 26.925 14.1055 27.4567 14.3123C28.0067 14.5241 28.47 14.811 28.9334 15.2738C29.3571 15.6907 29.685 16.1949 29.8942 16.7515C30.1 17.2827 30.24 17.8881 30.2817 18.7762C30.3209 19.6651 30.3317 19.9478 30.3317 22.2135C30.3317 24.4792 30.3234 24.7619 30.2817 25.6509C30.24 26.539 30.1 27.1436 29.8942 27.6756C29.6856 28.2325 29.3576 28.7368 28.9334 29.1533C28.5167 29.5772 28.0128 29.9052 27.4567 30.1148C26.9259 30.3207 26.3209 30.4608 25.4334 30.5025C24.545 30.5417 24.2625 30.5526 21.9984 30.5526C19.7342 30.5526 19.4517 30.5442 18.5634 30.5025C17.6759 30.4608 17.0717 30.3207 16.54 30.1148C15.9836 29.9058 15.4796 29.5777 15.0634 29.1533C14.6395 28.7365 14.3116 28.2322 14.1025 27.6756C13.8959 27.1444 13.7567 26.539 13.715 25.6509C13.6759 24.7619 13.665 24.4792 13.665 22.2135C13.665 19.9478 13.6734 19.6651 13.715 18.7762C13.7567 17.8873 13.8959 17.2835 14.1025 16.7515C14.3111 16.1946 14.639 15.6902 15.0634 15.2738C15.4798 14.8495 15.9837 14.5214 16.54 14.3123C17.0717 14.1055 17.675 13.9662 18.5634 13.9245C19.4517 13.8854 19.7342 13.8745 21.9984 13.8745Z" fill="#DF643A"/>
</g>
<defs>
<clipPath id="clip0_1_4304">
<rect width="20" height="20.0137" fill="white" transform="translate(12 12.2075)"/>
</clipPath>
</defs>
</svg>
