<svg id="Слой_1" data-name="Слой 1" xmlns="http://www.w3.org/2000/svg" viewBox="0 0 277.79 277.8"><defs><style>.cls-1{fill:#74c9e3;}.cls-2{fill:#141414;}.cls-3{fill:#fff;}</style></defs><path class="cls-1" d="M21.34,138.9A117.55,117.55,0,1,0,138.89,21.35,117.55,117.55,0,0,0,21.34,138.9"/><path class="cls-2" d="M138.89,258.44A119.55,119.55,0,1,1,258.44,138.9,119.67,119.67,0,0,1,138.89,258.44m0-235.1A115.56,115.56,0,1,0,254.45,138.9,115.69,115.69,0,0,0,138.89,23.34"/><path class="cls-3" d="M182.32,107.67a10.52,10.52,0,0,0-5.47-5.47,10.45,10.45,0,0,0-13.57,5.08,39.93,39.93,0,0,0-48.64.26,10.56,10.56,0,0,0-5.41-5.34,10.42,10.42,0,0,0-8.29,0,10.52,10.52,0,0,0-5.47,5.47,10.42,10.42,0,0,0,0,8.29,10.52,10.52,0,0,0,5.47,5.47,10.68,10.68,0,0,0,2,.63c-.21.44-.43.89-.62,1.35A39.7,39.7,0,0,0,99,139.3v52.11c1.09-.71,2.18-1.41,3.3-2.06a73.2,73.2,0,0,1,36.84-9.91,40.1,40.1,0,0,0,36.84-56c-.21-.49-.44-1-.67-1.46a10.2,10.2,0,0,0,1.56-.52,10.52,10.52,0,0,0,5.47-5.47,10.42,10.42,0,0,0,0-8.29"/><path class="cls-2" d="M183.78,107h0a12,12,0,0,0-21-2.07,41.59,41.59,0,0,0-47.64.21A12.07,12.07,0,0,0,93,111.81a11.86,11.86,0,0,0,1,4.78,12,12,0,0,0,6.3,6.3l.39.16a41.46,41.46,0,0,0-3.31,16.25v55.06l2.47-1.61c1-.67,2.11-1.37,3.23-2a72,72,0,0,1,36-9.69,41.71,41.71,0,0,0,38.36-58.14h0a12,12,0,0,0,6.29-6.3,11.92,11.92,0,0,0,0-9.56Zm-2.93,8.3a8.88,8.88,0,0,1-4.63,4.63,8.29,8.29,0,0,1-1.33.44l-1.89.49.85,1.75c.22.47.44.93.65,1.4a38.56,38.56,0,0,1-35.38,53.8A75.13,75.13,0,0,0,101.47,188l-.89.54V139.3A38.17,38.17,0,0,1,103.74,124c.19-.44.4-.87.6-1.3l.87-1.82-2-.42a9.31,9.31,0,0,1-1.67-.54,8.88,8.88,0,0,1,3.51-17,8.79,8.79,0,0,1,3.51.73,8.94,8.94,0,0,1,4.59,4.53L114,110l1.6-1.24a38.38,38.38,0,0,1,46.7-.24l1.56,1.17.85-1.75a8.85,8.85,0,0,1,16.13.32,8.83,8.83,0,0,1,0,7Z"/><path class="cls-2" d="M114.34,127.49a3.73,3.73,0,1,0,3.73,3.72A3.73,3.73,0,0,0,114.34,127.49Z"/><path class="cls-2" d="M163.45,127.49a3.73,3.73,0,1,0,3.72,3.72A3.73,3.73,0,0,0,163.45,127.49Z"/><path class="cls-2" d="M144.39,144.06h-11a2.69,2.69,0,0,0-2.1,4.37l2,2.54,3.46,4.31a2.62,2.62,0,0,0,1.25.85v5.42a6.4,6.4,0,0,1-3.52-1.36,3.29,3.29,0,0,0,1.25,2.75,4.88,4.88,0,0,0,6,0,3.29,3.29,0,0,0,1.25-2.75,6.47,6.47,0,0,1-3.53,1.36V156.2a2.66,2.66,0,0,0,1.47-.92l3.46-4.31,2-2.54A2.69,2.69,0,0,0,144.39,144.06Z"/><path class="cls-2" d="M89.58,65.49a11,11,0,0,0-4.66-3.36,11.22,11.22,0,0,0-5.71-.57,11.1,11.1,0,0,0-6.82,18L83.24,92.82l3.91-3.2A6.06,6.06,0,0,1,88,81.11a11.1,11.1,0,0,0,1.57-15.62ZM86.35,75.3a6.06,6.06,0,0,1-1.54,1.9,11,11,0,0,0-3.35,4.67c-.07.18-.13.36-.19.55l-5-6.08a6,6,0,0,1,7.47-9.19,6,6,0,0,1,3,3.7A6.08,6.08,0,0,1,86.35,75.3Z"/><path class="cls-2" d="M121.15,53.12a11.1,11.1,0,0,0-8.23-7.45,10.93,10.93,0,0,0-5.74.27,11.11,11.11,0,0,0-7.45,8.22A10.92,10.92,0,0,0,100,59.9l1.85,5.76A11,11,0,0,0,105,70.49a11.24,11.24,0,0,0,5.1,2.63,11,11,0,0,0,5.74-.28,10.83,10.83,0,0,0,4.83-3.12A11.07,11.07,0,0,0,123,58.88Zm-2.71,9.73A6.07,6.07,0,0,1,114.27,68a6,6,0,0,1-2.43.26,6.07,6.07,0,0,1-5.18-4.17l-1.85-5.76a6.16,6.16,0,0,1-.25-2.43,6.06,6.06,0,0,1,2-4,6,6,0,0,1,4.56-1.47,6.07,6.07,0,0,1,4,2,5.91,5.91,0,0,1,1.2,2.12l1.85,5.76A6,6,0,0,1,118.44,62.85Z"/><path class="cls-2" d="M140.32,52.15a11.13,11.13,0,0,0-1.45-5.56,11.51,11.51,0,0,0-.91-1.36,11.17,11.17,0,0,0-2.62-2.42c-.16-.11-.32-.22-.49-.32a11.21,11.21,0,0,0-3.15-1.25l0,5.28a6.06,6.06,0,0,1,3.13,3.19,5.85,5.85,0,0,1,.48,2.4l-.15,17.15,13.88.12,0-5-8.82-.08Z"/><path class="cls-2" d="M181.2,55.89a11.17,11.17,0,0,0-2.4-5.22,11.1,11.1,0,0,0-10.41-3.85,11.17,11.17,0,0,0-5.22,2.4,11,11,0,0,0-3.32,4.68l-2.11,5.68a11,11,0,0,0-.52,5.72,11.25,11.25,0,0,0,2.39,5.22,11.14,11.14,0,0,0,4.69,3.32l10.42,3.86,5.95-16.09A11,11,0,0,0,181.2,55.89Zm-5.27,4-4.2,11.34-5.67-2.1A6,6,0,0,1,164,67.81a6.1,6.1,0,0,1-1.86-4.06,6,6,0,0,1,.37-2.42l2.1-5.67a5.86,5.86,0,0,1,1.29-2.07,6,6,0,0,1,6.48-1.5,6,6,0,0,1,2.07,1.29,6.14,6.14,0,0,1,1.87,4.06A6,6,0,0,1,175.93,59.86Z"/><path class="cls-2" d="M207.49,67.56a11.11,11.11,0,0,0-15.68.85L180.36,81.17l3.76,3.38a5.85,5.85,0,0,1,2-1.45,6,6,0,0,1,4.45-.24,5.7,5.7,0,0,1,1.32.63l-4,4.43,3.76,3.38,4.56-5.08a11.1,11.1,0,0,0,11.29-18.66ZM205.8,77.75a5.88,5.88,0,0,1-1.23,2.11,6,6,0,0,1-2,1.45,6.09,6.09,0,0,1-4.46.24A6,6,0,0,1,196,80.32a10.94,10.94,0,0,0-5.13-2.59l-.57-.1,5.24-5.85A6.06,6.06,0,0,1,202,70.09a5.88,5.88,0,0,1,2.11,1.23,6,6,0,0,1,1.45,2A6.09,6.09,0,0,1,205.8,77.75Z"/><path class="cls-2" d="M49.41,143.94a4.22,4.22,0,0,0,3.63-2.1,4.2,4.2,0,0,0,0-4.19,4.31,4.31,0,0,0-1.53-1.53,4.22,4.22,0,0,0-4.2,0,4.31,4.31,0,0,0-1.53,1.53,4.25,4.25,0,0,0-.56,2.1v1h1.91v-1a2.15,2.15,0,0,1,.19-.91,2.27,2.27,0,0,1,1.19-1.19,2.23,2.23,0,0,1,1.8,0,2.24,2.24,0,0,1,1.38,2.1,2.26,2.26,0,0,1-.18.9,2.29,2.29,0,0,1-1.2,1.19,2.23,2.23,0,0,1-.9.19,4.19,4.19,0,0,0-4.19,4.19H53.6v-1.91H48.16a2.31,2.31,0,0,1,.35-.18A2.23,2.23,0,0,1,49.41,143.94Z"/><path class="cls-2" d="M63.15,136.12a4.17,4.17,0,0,0-2.1-.56,4.11,4.11,0,0,0-2.09.56,4.16,4.16,0,0,0-2.1,3.63V142a4.16,4.16,0,0,0,2.1,3.63,4.11,4.11,0,0,0,2.09.56,4.17,4.17,0,0,0,2.1-.56,4.31,4.31,0,0,0,1.53-1.53,4.17,4.17,0,0,0,.56-2.1v-2.28a4.15,4.15,0,0,0-.56-2.1A4.31,4.31,0,0,0,63.15,136.12Zm.18,5.91a2.23,2.23,0,0,1-.18.9,2.27,2.27,0,0,1-1.2,1.2,2.34,2.34,0,0,1-1.8,0,2.25,2.25,0,0,1-1.19-1.2,2.23,2.23,0,0,1-.19-.9v-2.28a2.32,2.32,0,0,1,.19-.91,2.27,2.27,0,0,1,1.19-1.19,2.23,2.23,0,0,1,1.8,0,2.24,2.24,0,0,1,1.38,2.1Z"/><path class="cls-2" d="M219.3,143.94a4.22,4.22,0,0,0,3.63-2.1,4.2,4.2,0,0,0,0-4.19,4.31,4.31,0,0,0-1.53-1.53,4.17,4.17,0,0,0-2.1-.56,4.11,4.11,0,0,0-2.09.56,4.16,4.16,0,0,0-2.1,3.63v1H217v-1a2.32,2.32,0,0,1,.19-.91,2.29,2.29,0,0,1,2.09-1.38,2.27,2.27,0,0,1,2.28,2.29,2.26,2.26,0,0,1-.18.9,2.29,2.29,0,0,1-2.1,1.38,4.19,4.19,0,0,0-4.19,4.19h8.38v-1.91h-5.44a2.31,2.31,0,0,1,.35-.18A2.27,2.27,0,0,1,219.3,143.94Z"/><path class="cls-2" d="M230.77,144.31v-8.65h-2a2.27,2.27,0,0,1-1.19,1.19,2.23,2.23,0,0,1-.9.19v1.9a4.11,4.11,0,0,0,2.09-.56l.09,0v6h-2.18v1.91H233v-1.91Z"/><path class="cls-2" d="M86.12,195.2a6.54,6.54,0,0,0-3-1.8,6.42,6.42,0,0,0-3.37,0,6.89,6.89,0,0,0-3.07,1.74l-7.4,7.19a1.49,1.49,0,0,0-.48,1.09,1.46,1.46,0,0,0,.45,1.1,1.51,1.51,0,0,0,1.11.5h0a1.54,1.54,0,0,0,1.09-.46L75.15,201a6.06,6.06,0,0,0,.3,1.57,6.08,6.08,0,0,0,4.25,4,6.7,6.7,0,0,0,1.47.17,6.55,6.55,0,0,0,1.79-.25,7.11,7.11,0,0,0,3-1.79,6.8,6.8,0,0,0,1.84-3,6.52,6.52,0,0,0-1.67-6.42Zm-1.18,5.53a4.26,4.26,0,0,1-2.84,2.76,3.53,3.53,0,0,1-1.88,0,3.57,3.57,0,0,1-1.65-1,3.53,3.53,0,0,1-.93-1.67,3.64,3.64,0,0,1,.08-1.88,4.06,4.06,0,0,1,1.09-1.71,4.11,4.11,0,0,1,1.75-1.05,3.38,3.38,0,0,1,1-.14,4,4,0,0,1,.9.11A3.74,3.74,0,0,1,85,198.85,3.65,3.65,0,0,1,84.94,200.73Z"/><path class="cls-2" d="M102.9,208a6.58,6.58,0,0,0-3.36-.92,6.22,6.22,0,0,0-3.18.93,7.08,7.08,0,0,0-2.42,2.6,6.65,6.65,0,0,0-.93,3.44,6.21,6.21,0,0,0,.95,3.26,7.3,7.3,0,0,0,2.65,2.48h0a8.15,8.15,0,0,0,3.64.93,4.76,4.76,0,0,0,.86-.07,1.2,1.2,0,0,0,1-.65,1.49,1.49,0,0,0,0-1.16,1.34,1.34,0,0,0-.67-.77,1.62,1.62,0,0,0-1-.17,4.3,4.3,0,0,1-1.21-.06,3.93,3.93,0,0,1-1.25-.44A4.21,4.21,0,0,1,96.4,216a3.76,3.76,0,0,1-.54-1.91,3.33,3.33,0,0,1,.1-.89l7.06,4a1.43,1.43,0,0,0,1.08.16,1.4,1.4,0,0,0,.86-.67,7.64,7.64,0,0,0,1-3.25,5.51,5.51,0,0,0-.67-3A6.13,6.13,0,0,0,102.9,208Zm.08,6.1-5.71-3.23a4.42,4.42,0,0,1,.53-.44,3.28,3.28,0,0,1,1.76-.59,3.83,3.83,0,0,1,2,.54,3.13,3.13,0,0,1,1.26,1.24,3.07,3.07,0,0,1,.32,1.62A4.31,4.31,0,0,1,103,214.12Z"/><path class="cls-2" d="M118.55,209.06a1.49,1.49,0,0,0-1.9,1L113.15,222a5.56,5.56,0,0,0-.22,2.36,3.94,3.94,0,0,0,.82,1.95,3.36,3.36,0,0,0,1.73,1.16h0a2.54,2.54,0,0,0,.74.12,1.84,1.84,0,0,0,.66-.12,1.37,1.37,0,0,0,.89-.92,1.58,1.58,0,0,0-.06-1.14,1.36,1.36,0,0,0-.87-.73l-.54-.16c-.07,0-.26-.07-.35-.46a2.35,2.35,0,0,1,.08-1.21l3.5-11.85a1.48,1.48,0,0,0-.1-1.17A1.5,1.5,0,0,0,118.55,209.06Z"/><path class="cls-2" d="M144.4,217.86a5.07,5.07,0,0,0-2.48-.63,5.81,5.81,0,0,0-2.81.68,4.84,4.84,0,0,0-1.14.85,4.3,4.3,0,0,0-1.11-.93,4.93,4.93,0,0,0-2.48-.62,5.06,5.06,0,0,0-2.59.68c-.12.08-.24.15-.35.24a1.83,1.83,0,0,0-.26-.36,1.53,1.53,0,0,0-1.12-.44,1.66,1.66,0,0,0-1.11.43,1.47,1.47,0,0,0-.45,1.12l0,10.07a1.52,1.52,0,0,0,1.54,1.56,1.62,1.62,0,0,0,1.13-.45,1.49,1.49,0,0,0,.43-1.1l0-6.44a2.55,2.55,0,0,1,.67-1.75,2.05,2.05,0,0,1,1.66-.68,2.08,2.08,0,0,1,1.55.58,2.48,2.48,0,0,1,.58,1.83l0,6.47a1.45,1.45,0,0,0,.44,1.11,1.47,1.47,0,0,0,1.1.45h0a1.71,1.71,0,0,0,1.13-.44,1.53,1.53,0,0,0,.43-1.11l0-6.44a2.54,2.54,0,0,1,.66-1.75,2.28,2.28,0,0,1,1.65-.68,2.1,2.1,0,0,1,1.55.58,2.49,2.49,0,0,1,.57,1.84l0,6.47a1.52,1.52,0,0,0,1.55,1.56h0a1.5,1.5,0,0,0,1.12-.45,1.53,1.53,0,0,0,.43-1.1l0-6.47a6.2,6.2,0,0,0-.59-2.84A4.22,4.22,0,0,0,144.4,217.86Z"/><path class="cls-2" d="M168.58,221.69a1.38,1.38,0,0,0-1,0,1.67,1.67,0,0,0-.81.61,4.45,4.45,0,0,1-2,1.47,4.19,4.19,0,0,1-2.15.13,3.7,3.7,0,0,1-1.77-.9,3.79,3.79,0,0,1-.58-.68l7.73-2.44a1.39,1.39,0,0,0,.86-.69,1.37,1.37,0,0,0,.1-1.07,7.62,7.62,0,0,0-1.68-3,5.49,5.49,0,0,0-2.69-1.58,6.11,6.11,0,0,0-3.34.17,6.67,6.67,0,0,0-3,1.84,6.14,6.14,0,0,0-1.49,2.95,7,7,0,0,0,.26,3.55,6.67,6.67,0,0,0,1.87,3,6.27,6.27,0,0,0,3,1.52,6.14,6.14,0,0,0,1.29.13,7.72,7.72,0,0,0,2.33-.38h0a7.07,7.07,0,0,0,2.09-1.08,6.85,6.85,0,0,0,1.61-1.62,1.19,1.19,0,0,0,.18-1.15A1.44,1.44,0,0,0,168.58,221.69Zm-9.08-2.58a3.19,3.19,0,0,1,.76-1.69,3.76,3.76,0,0,1,1.76-1.09,3.65,3.65,0,0,1,1-.17,2.76,2.76,0,0,1,.71.09,3.13,3.13,0,0,1,1.41.87,4.71,4.71,0,0,1,.52.7l-6.26,2A3.82,3.82,0,0,1,159.5,219.11Z"/><path class="cls-2" d="M188.08,206.5a6.9,6.9,0,0,0-2.5-2.37,5.21,5.21,0,0,0-2.93-.58,6.22,6.22,0,0,0-2.88,1.06,6,6,0,0,0-2,2.19,5.35,5.35,0,0,0-.31.7,1.54,1.54,0,0,0-.61-.28,1.49,1.49,0,0,0-1.17.27,1.5,1.5,0,0,0-.43,2.15l5.61,8.39a1.51,1.51,0,0,0,1,.67,1,1,0,0,0,.3,0,1.6,1.6,0,0,0,.87-.28,1.49,1.49,0,0,0,.68-1,1.54,1.54,0,0,0-.26-1.16L179.88,211a2.09,2.09,0,0,1-.37-1.23,2.84,2.84,0,0,1,.4-1.35,3.28,3.28,0,0,1,1.09-1.14,3.72,3.72,0,0,1,1.58-.64,2.67,2.67,0,0,1,1.51.26,3.88,3.88,0,0,1,1.41,1.35l3.09,4.63a1.51,1.51,0,0,0,1,.67,1.56,1.56,0,0,0,1.6-2.4Z"/><path class="cls-2" d="M194.77,193.67a1.48,1.48,0,0,0-2.19.09,1.52,1.52,0,0,0-.44,1.1,1.49,1.49,0,0,0,.52,1.09L200,202.8a1.56,1.56,0,0,0,1.06.43h.06a1.53,1.53,0,0,0,1.08-.51,1.48,1.48,0,0,0,.43-1.13,1.53,1.53,0,0,0-.51-1.07Z"/><path class="cls-2" d="M191.58,190.26a1.84,1.84,0,0,0-1.36-.5A1.89,1.89,0,0,0,189,193a1.77,1.77,0,0,0,1.27.5h.09a1.81,1.81,0,0,0,1.31-.6h0a1.9,1.9,0,0,0-.1-2.67Z"/></svg>