<svg width="62" height="62" viewBox="0 0 62 62" fill="none" xmlns="http://www.w3.org/2000/svg">
<mask id="mask0_376_11593" style="mask-type:alpha" maskUnits="userSpaceOnUse" x="0" y="0" width="62" height="62">
<circle cx="31" cy="31" r="31" fill="#D9D9D9"/>
</mask>
<g mask="url(#mask0_376_11593)">
</g>
<g clip-path="url(#clip0_376_11593)">
<path d="M0.519531 31.0012C0.519531 47.836 14.1674 61.4839 31.0022 61.4839C47.837 61.4839 61.4849 47.836 61.4849 31.0012C61.4849 14.1664 47.837 0.518555 31.0022 0.518555C14.1674 0.518555 0.519531 14.1664 0.519531 31.0012Z" fill="#FF5124"/>
<path d="M31.0013 62C13.9071 62 0 48.0928 0 31.0013C0 13.9097 13.9071 0 31.0013 0C48.0954 0 62.0026 13.9071 62.0026 31.0013C62.0026 48.0954 48.0954 62.0026 31.0013 62.0026M31.0013 1.03467C14.4776 1.03467 1.03467 14.4776 1.03467 31.0013C1.03467 47.5249 14.4776 60.9653 30.9987 60.9653C47.5198 60.9653 60.9627 47.5224 60.9627 31.0013C60.9627 14.4802 47.5224 1.03467 31.0013 1.03467Z" fill="#141414"/>
<path d="M42.2616 22.9028C41.9867 22.2675 41.4784 21.7592 40.8431 21.4844C40.5138 21.3417 40.1507 21.2614 39.7669 21.2614C39.3832 21.2614 39.0227 21.3417 38.6908 21.4844C38.0892 21.7437 37.6042 22.2156 37.3216 22.8043C36.6629 22.3064 35.9446 21.8837 35.177 21.5518C33.9116 21.0046 32.519 20.696 31.0565 20.696C29.5939 20.696 28.2014 21.002 26.936 21.5492C26.1347 21.8967 25.3878 22.3427 24.7084 22.8691C24.431 22.2494 23.9305 21.7541 23.3055 21.4844C22.9762 21.3417 22.6131 21.2614 22.2294 21.2614C21.8456 21.2614 21.4851 21.3417 21.1532 21.4844C20.5179 21.7592 20.0096 22.2675 19.7347 22.9028C19.5921 23.2322 19.5117 23.5952 19.5117 23.979C19.5117 24.3628 19.5921 24.7232 19.7347 25.0552C20.0096 25.6905 20.5179 26.1987 21.1532 26.4736C21.3166 26.5436 21.4851 26.5981 21.6615 26.637C21.607 26.7537 21.5499 26.8678 21.5007 26.9871C20.9535 28.2525 20.6449 29.6451 20.6449 31.1076V44.6206C20.925 44.4365 21.2102 44.255 21.5007 44.0864C24.3143 42.4553 27.5765 41.5166 31.0539 41.5166C32.5164 41.5166 33.909 41.208 35.1744 40.6608C37.6042 39.608 39.5569 37.6579 40.6071 35.2281C41.1543 33.9627 41.4629 32.5702 41.4629 31.1076C41.4629 29.6451 41.1543 28.2525 40.6071 26.9871C40.5527 26.86 40.493 26.7329 40.4334 26.6085C40.5734 26.5722 40.7083 26.5307 40.8379 26.4736C41.4732 26.1987 41.9815 25.6905 42.2564 25.0552C42.399 24.7258 42.4794 24.3628 42.4794 23.979C42.4794 23.5952 42.399 23.2348 42.2564 22.9028" fill="white"/>
<path d="M42.643 22.7367C42.324 22.0029 41.7458 21.422 41.0093 21.103C40.221 20.7607 39.3186 20.7607 38.5302 21.103C37.9909 21.3364 37.5293 21.7176 37.1973 22.1999C36.6139 21.7954 35.9915 21.4505 35.3458 21.1705C33.9844 20.5818 32.5426 20.281 31.0619 20.281C29.5812 20.281 28.1394 20.5792 26.778 21.1705C26.1038 21.4635 25.4555 21.8265 24.8487 22.257C24.5142 21.7487 24.0396 21.3494 23.4769 21.1056C22.6886 20.7633 21.7862 20.7633 20.9978 21.1056C20.2614 21.4246 19.6831 22.0029 19.3641 22.7393C19.193 23.1335 19.1074 23.551 19.1074 23.9789C19.1074 24.4067 19.193 24.8242 19.3641 25.2184C19.6831 25.9523 20.2614 26.5331 20.9978 26.8521C21.0316 26.8676 21.0653 26.8806 21.099 26.8936C20.5311 28.2342 20.2406 29.6501 20.2406 31.1049V45.3828L20.8811 44.9653C21.1456 44.7942 21.4283 44.6101 21.7187 44.4441C24.5557 42.8001 27.7867 41.9288 31.0645 41.9288C32.5452 41.9288 33.987 41.6305 35.3484 41.0393C37.8897 39.9398 39.8968 37.9327 40.9963 35.3914C41.585 34.03 41.8858 32.5882 41.8858 31.1075C41.8858 29.6268 41.5902 28.2083 41.0119 26.8547C41.7484 26.5357 42.3266 25.9574 42.6456 25.221C42.8167 24.8268 42.9023 24.4093 42.9023 23.9815C42.9023 23.5536 42.8167 23.1361 42.6456 22.7419L42.643 22.7367ZM41.8832 24.8865C41.6498 25.4284 41.2219 25.8537 40.68 26.0897C40.5814 26.1338 40.4699 26.1701 40.3377 26.2038L39.8476 26.3283L40.0654 26.7847C40.1224 26.904 40.1795 27.0258 40.2339 27.1477C40.7785 28.4054 41.0534 29.7383 41.0534 31.1049C41.0534 32.4715 40.7785 33.8044 40.2339 35.0621C39.2174 37.4115 37.3633 39.263 35.0165 40.2795C33.7588 40.8241 32.4285 41.0989 31.0619 41.0989C27.6389 41.0989 24.2626 42.0065 21.2986 43.7258C21.2209 43.7725 21.1431 43.8166 21.0653 43.8633V31.1023C21.0653 29.7331 21.3401 28.4028 21.8873 27.1451C21.9366 27.031 21.9884 26.9195 22.0429 26.808L22.2685 26.3335L21.755 26.2245C21.6072 26.1934 21.462 26.1467 21.3246 26.0871C20.7826 25.8537 20.3573 25.4258 20.1213 24.8839C19.9969 24.5934 19.932 24.2874 19.932 23.9737C19.932 23.6599 19.9969 23.3539 20.1213 23.0635C20.3547 22.5215 20.7826 22.0962 21.3246 21.8602C21.615 21.7358 21.921 21.6709 22.2348 21.6709C22.5486 21.6709 22.8571 21.7332 23.145 21.8602C23.674 22.0884 24.0967 22.5059 24.3327 23.0349L24.5479 23.5147L24.9628 23.1931C25.6266 22.6797 26.3475 22.2544 27.1022 21.9277C28.3598 21.3831 29.6901 21.1082 31.0567 21.1082C32.4233 21.1082 33.7562 21.3857 35.0139 21.9303C35.7426 22.2466 36.435 22.6512 37.0729 23.1335L37.4774 23.4395L37.6978 22.9831C37.939 22.48 38.3513 22.0833 38.8596 21.8654C39.4378 21.6139 40.1017 21.6139 40.68 21.8654C41.2219 22.0988 41.6472 22.5267 41.8832 23.0687C42.0077 23.3591 42.0725 23.6651 42.0725 23.9789C42.0725 24.2926 42.0077 24.6012 41.8832 24.8891V24.8865Z" fill="#141414"/>
<path d="M24.6326 28.0425C24.0984 28.0425 23.668 28.4755 23.668 29.0071C23.668 29.5387 24.101 29.9718 24.6326 29.9718C25.1642 29.9718 25.5973 29.5387 25.5973 29.0071C25.5973 28.4755 25.1642 28.0425 24.6326 28.0425Z" fill="#141414"/>
<path d="M37.369 28.0425C36.8348 28.0425 36.4043 28.4755 36.4043 29.0071C36.4043 29.5387 36.8374 29.9718 37.369 29.9718C37.9006 29.9718 38.3336 29.5387 38.3336 29.0071C38.3336 28.4755 37.9006 28.0425 37.369 28.0425Z" fill="#141414"/>
<path d="M32.4259 32.3391H29.576C28.99 32.3391 28.6658 33.0159 29.0315 33.4749L29.5605 34.1336L30.4551 35.2486C30.5433 35.3601 30.6574 35.4302 30.7818 35.4717V36.8772C30.4914 36.8538 30.2139 36.7786 29.8691 36.5245C29.8431 36.789 29.978 37.0561 30.1932 37.2376C30.411 37.4217 30.7015 37.5073 30.9737 37.5073C31.2434 37.5073 31.5365 37.4217 31.7543 37.2376C31.9695 37.0561 32.1044 36.789 32.0784 36.5245C31.7309 36.776 31.4561 36.8538 31.1656 36.8772V35.4924C31.3109 35.4587 31.4457 35.3783 31.5468 35.2512L32.4415 34.1362L32.9705 33.4775C33.3361 33.0211 33.012 32.3417 32.4259 32.3417V32.3391Z" fill="#141414"/>
<path d="M18.2122 11.9652C17.8803 11.558 17.4602 11.2676 17.0012 11.0965C16.5292 10.9175 16.0184 10.8683 15.5205 10.946C15.0356 11.0238 14.5662 11.2261 14.1617 11.558C13.7546 11.89 13.4641 12.3101 13.293 12.769C13.1166 13.241 13.0648 13.7519 13.1426 14.2497C13.2204 14.7347 13.4226 15.204 13.752 15.6086L16.5655 19.0523L17.5795 18.2225C17.4394 18.0513 17.3435 17.8594 17.2864 17.6598C17.1775 17.276 17.219 16.8637 17.4031 16.5084C17.4991 16.3243 17.6313 16.1557 17.8025 16.0157C18.2096 15.6838 18.5001 15.2637 18.6738 14.8047C18.8501 14.3327 18.902 13.8219 18.8242 13.324C18.7464 12.8391 18.5441 12.3697 18.2148 11.9652H18.2122ZM17.372 14.5091C17.2761 14.6932 17.1438 14.8617 16.9727 15.0018C16.5655 15.3337 16.2751 15.7538 16.1014 16.2128C16.0832 16.2594 16.0677 16.3087 16.0521 16.3554L14.7633 14.7787C14.6233 14.6076 14.5273 14.4157 14.4703 14.216C14.3614 13.8322 14.4028 13.4173 14.587 13.0647C14.6829 12.8806 14.8152 12.712 14.9863 12.572C15.1575 12.4319 15.3494 12.336 15.549 12.2789C15.9328 12.17 16.3477 12.2115 16.7004 12.3956C16.8845 12.4916 17.0531 12.6238 17.1931 12.795C17.3331 12.9661 17.4291 13.158 17.4861 13.3577C17.595 13.7415 17.5535 14.1564 17.3694 14.5091H17.372Z" fill="white"/>
<path d="M26.3971 8.75752C26.2363 8.25963 25.9511 7.83435 25.588 7.50502C25.2146 7.16791 24.7582 6.93193 24.2655 6.82561C23.7858 6.72188 23.2749 6.73744 22.777 6.89562C22.2792 7.0564 21.8539 7.34165 21.5245 7.70469C21.1874 8.07811 20.9515 8.5345 20.8451 9.02721C20.7414 9.50694 20.757 10.0178 20.9152 10.5157L21.3949 12.0093C21.5557 12.5072 21.8409 12.9325 22.204 13.2618C22.5774 13.599 23.0338 13.8349 23.5265 13.9413C24.0062 14.045 24.5171 14.0294 25.015 13.8712C25.5154 13.7105 25.9381 13.4252 26.2674 13.0622C26.6046 12.6888 26.8405 12.2298 26.9469 11.7397C27.0506 11.2599 27.035 10.7491 26.8768 10.2512L26.3971 8.75752ZM25.6944 11.2807C25.6555 11.6774 25.4662 12.0482 25.1654 12.3102C25.0098 12.4476 24.8231 12.5565 24.613 12.6213C24.403 12.6888 24.1877 12.7095 23.9829 12.6888C23.5861 12.6499 23.2153 12.4606 22.9534 12.1597C22.8159 12.0042 22.7096 11.8175 22.6422 11.6074L22.1625 10.1137C22.095 9.9037 22.0743 9.69106 22.095 9.4836C22.1339 9.08685 22.3232 8.71603 22.6241 8.45412C22.7796 8.31668 22.9663 8.21036 23.1764 8.14294C23.3864 8.07551 23.5991 8.05477 23.8065 8.07551C24.2033 8.11441 24.5741 8.30371 24.836 8.60452C24.9735 8.76011 25.0798 8.94682 25.1472 9.15686L25.6269 10.6505C25.6944 10.8606 25.7151 11.0732 25.6944 11.2807Z" fill="white"/>
<path d="M31.3687 8.5059C31.3739 7.98208 31.2365 7.48938 30.9953 7.0641C30.9253 6.93963 30.8449 6.82294 30.7593 6.71402C30.5674 6.47027 30.3392 6.25763 30.0799 6.08388C30.0384 6.05536 29.9944 6.02943 29.9529 6.0035C29.7039 5.85569 29.429 5.74418 29.136 5.67676L29.123 7.04854C29.4887 7.20932 29.7791 7.50753 29.9347 7.87576C30.0151 8.06766 30.0592 8.2777 30.0592 8.49812L30.0203 12.9454L33.6196 12.9765L33.63 11.6644L31.3428 11.6436L31.3713 8.5059H31.3687Z" fill="white"/>
<path d="M41.9696 9.47577C41.8841 8.98048 41.6688 8.51112 41.3473 8.12214C41.0361 7.74354 40.6238 7.44014 40.1311 7.25862C39.6384 7.07709 39.1301 7.0382 38.6452 7.12118C38.1473 7.20675 37.6805 7.42199 37.2941 7.74354C36.9155 8.05472 36.6121 8.46703 36.4306 8.95973L35.8861 10.4301C35.7045 10.9228 35.6656 11.431 35.7486 11.9159C35.8342 12.4138 36.0494 12.8806 36.371 13.267C36.6822 13.6456 37.0945 13.949 37.5872 14.1305L40.2867 15.1315L41.8322 10.9591C42.0137 10.4664 42.0526 9.9581 41.9696 9.47318V9.47577ZM40.603 10.5053L39.5139 13.4459L38.0436 12.9013C37.8361 12.8236 37.6572 12.7095 37.5068 12.5642C37.2189 12.2894 37.0452 11.9108 37.0245 11.5114C37.0141 11.304 37.0426 11.0913 37.1204 10.8839L37.665 9.41354C37.7402 9.20608 37.8569 9.02716 38.0021 8.87675C38.277 8.58891 38.6556 8.41517 39.0549 8.39442C39.2624 8.38405 39.475 8.41258 39.6825 8.49037C39.8899 8.56557 40.0688 8.68226 40.2192 8.82748C40.5071 9.10236 40.6808 9.48096 40.7016 9.88031C40.7119 10.0878 40.6834 10.3004 40.6056 10.5079L40.603 10.5053Z" fill="white"/>
<path d="M48.7872 12.5019C48.3982 12.1518 47.9367 11.9288 47.4569 11.8277C46.9642 11.724 46.4508 11.7525 45.971 11.9081C45.5043 12.0585 45.0712 12.3308 44.7211 12.7197L41.752 16.0312L42.727 16.9077C42.8748 16.7443 43.0485 16.6173 43.2378 16.5317C43.6009 16.3657 44.0158 16.3424 44.3944 16.4695C44.5137 16.5084 44.6278 16.5654 44.7367 16.6328L43.7046 17.7816L44.6796 18.6581L45.8621 17.3408C45.997 17.39 46.1344 17.4315 46.2744 17.46C46.7671 17.5638 47.2806 17.5352 47.7603 17.3797C48.2271 17.2293 48.6601 16.957 49.0102 16.568C49.3603 16.1764 49.5833 15.7174 49.6844 15.2377C49.7882 14.745 49.7596 14.2316 49.6041 13.7518C49.4537 13.285 49.1814 12.852 48.7924 12.5019H48.7872ZM48.3516 15.1418C48.2867 15.3388 48.1804 15.5255 48.0326 15.6889C47.8848 15.8523 47.711 15.9793 47.5217 16.0649C47.1587 16.2309 46.7438 16.2542 46.3652 16.1272C46.1681 16.0623 45.9814 15.956 45.818 15.8082C45.4291 15.4581 44.9675 15.2351 44.4877 15.134C44.4385 15.1236 44.3892 15.1158 44.3373 15.108L45.6962 13.5936C45.844 13.4303 46.0177 13.3032 46.207 13.2176C46.5701 13.0517 46.985 13.0283 47.3636 13.1554C47.5606 13.2202 47.7474 13.3265 47.9107 13.4743C48.0741 13.6222 48.2012 13.7959 48.2867 13.9852C48.4527 14.3482 48.476 14.7632 48.349 15.1418H48.3516Z" fill="white"/>
<path d="M7.79357 32.3086C7.99065 32.3086 8.17736 32.2541 8.33813 32.1634C8.5015 32.0674 8.63894 31.93 8.73489 31.7666C8.82824 31.6058 8.8801 31.4217 8.8801 31.222C8.8801 31.0224 8.82565 30.8382 8.73489 30.6775C8.63894 30.5141 8.5015 30.3767 8.33813 30.2807C8.17736 30.1874 7.99324 30.1355 7.79357 30.1355C7.59389 30.1355 7.40978 30.19 7.249 30.2807C7.08563 30.3767 6.9482 30.5141 6.85225 30.6775C6.75889 30.8382 6.70703 31.0224 6.70703 31.222V31.4943H7.20233V31.222C7.20233 31.1391 7.22048 31.0587 7.2516 30.9886C7.31124 30.8512 7.42274 30.7397 7.56018 30.6801C7.63279 30.6489 7.71059 30.6308 7.79357 30.6308C7.87655 30.6308 7.95694 30.6489 8.02695 30.6801C8.16439 30.7397 8.2759 30.8512 8.33554 30.9886C8.36666 31.0613 8.38481 31.1391 8.38481 31.222C8.38481 31.305 8.36666 31.3854 8.33554 31.4554C8.2759 31.5929 8.16439 31.7044 8.02695 31.764C7.95434 31.7951 7.87655 31.8133 7.79357 31.8133C7.59649 31.8133 7.40978 31.8677 7.249 31.9585C7.08563 32.0544 6.9482 32.1919 6.85225 32.3552C6.75889 32.516 6.70703 32.7001 6.70703 32.8998H8.8801V32.4045H7.46942C7.49795 32.3864 7.52647 32.3682 7.55759 32.3552C7.6302 32.3241 7.70799 32.306 7.79097 32.306L7.79357 32.3086Z" fill="white"/>
<path d="M11.3577 30.2807C11.1969 30.1874 11.0128 30.1355 10.8131 30.1355C10.6134 30.1355 10.4293 30.19 10.2685 30.2807C10.1052 30.3767 9.96773 30.5141 9.87178 30.6775C9.77843 30.8382 9.72656 31.0224 9.72656 31.222V31.8133C9.72656 32.0104 9.78102 32.1971 9.87178 32.3578C9.96773 32.5212 10.1052 32.6586 10.2685 32.7546C10.4293 32.8479 10.6134 32.8998 10.8131 32.8998C11.0128 32.8998 11.1969 32.8454 11.3577 32.7546C11.521 32.6586 11.6585 32.5212 11.7544 32.3578C11.8478 32.1971 11.8996 32.013 11.8996 31.8133V31.222C11.8996 31.025 11.8452 30.8382 11.7544 30.6775C11.6585 30.5141 11.521 30.3767 11.3577 30.2807ZM11.4069 31.8133C11.4069 31.8963 11.3888 31.9766 11.3577 32.0467C11.298 32.1841 11.1865 32.2956 11.0491 32.3552C10.9765 32.3864 10.8987 32.4045 10.8157 32.4045C10.7327 32.4045 10.6523 32.3864 10.5823 32.3552C10.4449 32.2956 10.3334 32.1841 10.2737 32.0467C10.2426 31.9741 10.2245 31.8963 10.2245 31.8133V31.222C10.2245 31.1391 10.2426 31.0587 10.2737 30.9886C10.3334 30.8512 10.4449 30.7397 10.5823 30.6801C10.6549 30.6489 10.7327 30.6308 10.8157 30.6308C10.8987 30.6308 10.9791 30.6489 11.0491 30.6801C11.1865 30.7397 11.298 30.8512 11.3577 30.9886C11.3888 31.0613 11.4069 31.1391 11.4069 31.222V31.8133Z" fill="white"/>
<path d="M51.8483 32.3086C52.0453 32.3086 52.232 32.2541 52.3928 32.1634C52.5562 32.0674 52.6936 31.93 52.7896 31.7666C52.8829 31.6058 52.9348 31.4217 52.9348 31.222C52.9348 31.0224 52.8803 30.8382 52.7896 30.6775C52.6936 30.5141 52.5562 30.3767 52.3928 30.2807C52.232 30.1874 52.0479 30.1355 51.8483 30.1355C51.6486 30.1355 51.4645 30.19 51.3037 30.2807C51.1403 30.3767 51.0029 30.5141 50.9069 30.6775C50.8136 30.8382 50.7617 31.0224 50.7617 31.222V31.4943H51.257V31.222C51.257 31.1391 51.2752 31.0587 51.3063 30.9886C51.3659 30.8512 51.4774 30.7397 51.6149 30.6801C51.6875 30.6489 51.7653 30.6308 51.8483 30.6308C51.9312 30.6308 52.0116 30.6489 52.0816 30.6801C52.2191 30.7397 52.3306 30.8512 52.3902 30.9886C52.4213 31.0613 52.4395 31.1391 52.4395 31.222C52.4395 31.305 52.4213 31.3854 52.3902 31.4554C52.3306 31.5929 52.2191 31.7044 52.0816 31.764C52.009 31.7951 51.9312 31.8133 51.8483 31.8133C51.6512 31.8133 51.4645 31.8677 51.3037 31.9585C51.1403 32.0544 51.0029 32.1919 50.9069 32.3552C50.8136 32.516 50.7617 32.7001 50.7617 32.8998H52.9348V32.4045H51.5241C51.5526 32.3864 51.5812 32.3682 51.6123 32.3552C51.6849 32.3241 51.7627 32.306 51.8457 32.306L51.8483 32.3086Z" fill="white"/>
<path d="M54.8243 32.4046V30.1589H54.3056C54.246 30.2964 54.1345 30.4079 53.9971 30.4675C53.9244 30.4986 53.8467 30.5168 53.7637 30.5168V31.0121C53.9608 31.0121 54.1475 30.9576 54.3082 30.8669C54.316 30.8617 54.3238 30.8565 54.3316 30.8539V32.4072H53.7663V32.9025H55.3922V32.4072H54.8269L54.8243 32.4046Z" fill="white"/>
<path d="M17.3123 45.6012C17.0867 45.3704 16.8274 45.2123 16.5396 45.1345C16.2517 45.0567 15.9587 45.0541 15.6657 45.1293C15.3753 45.2045 15.1082 45.3549 14.8696 45.5805L12.9506 47.445C12.8677 47.5254 12.8262 47.6187 12.8262 47.7276C12.8262 47.8365 12.8651 47.9325 12.9429 48.0129C13.0258 48.0985 13.1218 48.1399 13.2281 48.1399C13.3344 48.1399 13.4304 48.0985 13.5108 48.0207L14.4651 47.0923C14.4728 47.2297 14.4988 47.3672 14.5428 47.502C14.6129 47.7224 14.7373 47.9221 14.9085 48.0985C15.1211 48.3163 15.3701 48.4615 15.6475 48.5289C15.772 48.56 15.8991 48.5756 16.0261 48.5756C16.1791 48.5756 16.3347 48.5523 16.4903 48.5082C16.773 48.4278 17.0323 48.2722 17.2657 48.044C17.4991 47.8158 17.6598 47.5539 17.7402 47.2635C17.8206 46.973 17.8284 46.68 17.7558 46.3896C17.6858 46.0991 17.5328 45.832 17.3072 45.5986L17.3123 45.6012ZM17.0064 47.0353C16.9571 47.1986 16.8611 47.3516 16.7237 47.4839C16.5889 47.6161 16.4359 47.7043 16.2699 47.751C16.1039 47.7951 15.9406 47.7976 15.7798 47.7562C15.6216 47.7147 15.479 47.6291 15.3519 47.502C15.2274 47.375 15.1496 47.2323 15.1108 47.069C15.0744 46.9082 15.0796 46.7448 15.1315 46.5815C15.1834 46.4181 15.2767 46.2703 15.4116 46.138C15.549 46.0032 15.7046 45.9124 15.868 45.8657C15.9535 45.8424 16.0391 45.8294 16.1247 45.8294C16.2025 45.8294 16.2803 45.8398 16.3555 45.8606C16.5162 45.902 16.6589 45.9876 16.7808 46.1121C16.9052 46.2418 16.9882 46.387 17.0219 46.5452C17.0582 46.7059 17.0504 46.8693 17.0012 47.0327L17.0064 47.0353Z" fill="white"/>
<path d="M21.6645 48.923C21.3818 48.7622 21.0888 48.6818 20.7958 48.687C20.5027 48.6896 20.2253 48.77 19.9711 48.9282C19.7196 49.0838 19.507 49.3094 19.341 49.6024C19.175 49.8928 19.0947 50.1936 19.0998 50.4944C19.105 50.7952 19.188 51.0805 19.3488 51.3398C19.5096 51.5991 19.7404 51.8144 20.036 51.9829C20.2019 52.0763 20.3938 52.1463 20.6091 52.1878C20.7387 52.2137 20.8606 52.2241 20.9773 52.2241C21.0551 52.2241 21.1303 52.2189 21.2029 52.2085C21.3507 52.1878 21.4207 52.1048 21.4518 52.04C21.4959 51.9518 21.4985 51.8507 21.4596 51.7366C21.4285 51.651 21.3689 51.5836 21.2859 51.5395C21.2055 51.498 21.1199 51.4824 21.024 51.4928C20.9384 51.5032 20.8321 51.498 20.7102 51.4772C20.5909 51.4565 20.4794 51.4176 20.3861 51.3632C20.2097 51.262 20.0723 51.135 19.9789 50.9794C19.8856 50.8238 19.8389 50.6604 19.8389 50.4841C19.8389 50.4063 19.8467 50.3285 19.8648 50.2533L21.6956 51.2879C21.7864 51.3398 21.8823 51.3528 21.9757 51.3294C22.0716 51.3061 22.1468 51.2465 22.1987 51.1557C22.3569 50.873 22.4476 50.5904 22.4632 50.3129C22.4813 50.0303 22.4217 49.7658 22.2894 49.5246C22.1572 49.2834 21.9471 49.0812 21.6645 48.9204V48.923ZM21.6852 50.5074L20.2045 49.6698C20.2486 49.6283 20.2927 49.5894 20.342 49.5583C20.482 49.4624 20.6324 49.4105 20.7984 49.4053C20.9643 49.4001 21.1381 49.4468 21.3144 49.5453C21.4648 49.6309 21.5763 49.7398 21.6411 49.8643C21.706 49.9914 21.7345 50.134 21.7241 50.2844C21.7189 50.357 21.706 50.4322 21.6852 50.5074Z" fill="white"/>
<path d="M25.7237 49.1953C25.6148 49.1616 25.5111 49.1719 25.4203 49.2238C25.3269 49.2731 25.2647 49.356 25.231 49.465L24.3234 52.5379C24.2586 52.7531 24.2404 52.9605 24.2689 53.1498C24.2975 53.3443 24.3675 53.5155 24.479 53.6555C24.5931 53.8007 24.7435 53.9019 24.9302 53.9563H24.9406C25.008 53.9797 25.0728 53.99 25.1325 53.99C25.1921 53.99 25.2492 53.9797 25.3036 53.9615C25.4203 53.92 25.5007 53.837 25.5344 53.7229C25.5655 53.6166 25.5603 53.5155 25.5188 53.4247C25.4748 53.3314 25.397 53.2665 25.2958 53.238L25.1558 53.1965C25.1376 53.1913 25.0884 53.1758 25.065 53.0772C25.0443 52.9891 25.0521 52.8853 25.0858 52.7635L25.9934 49.6906C26.0245 49.5816 26.0167 49.4779 25.9649 49.3846C25.9156 49.2912 25.8326 49.229 25.7237 49.1953Z" fill="white"/>
<path d="M32.4258 51.4773C32.2391 51.371 32.0213 51.3165 31.7827 51.3139C31.5156 51.3139 31.2667 51.371 31.054 51.4877C30.9425 51.5473 30.844 51.6225 30.7584 51.7081C30.678 51.6121 30.5821 51.5318 30.4706 51.4695C30.2839 51.3632 30.0661 51.3087 29.8275 51.3062C29.5837 51.3087 29.3529 51.3658 29.1559 51.4825C29.1247 51.5006 29.0936 51.5214 29.0625 51.5447C29.0443 51.511 29.021 51.4799 28.9951 51.4514C28.9199 51.3762 28.8239 51.3373 28.7046 51.3373C28.5957 51.3425 28.4946 51.3736 28.4194 51.4488C28.3416 51.524 28.3027 51.6225 28.3027 51.7392L28.2949 54.3505C28.2949 54.4646 28.3338 54.5606 28.409 54.6384C28.4842 54.7162 28.5828 54.7551 28.6969 54.7551C28.811 54.7499 28.9147 54.7162 28.9899 54.6384C29.0651 54.5632 29.1014 54.4672 29.1014 54.3531L29.1066 52.6831C29.1092 52.4964 29.1662 52.3486 29.2803 52.2319C29.3944 52.1126 29.537 52.0452 29.7108 52.053C29.8793 52.053 30.0116 52.1023 30.1127 52.2034C30.2139 52.3019 30.2631 52.4627 30.2631 52.6779L30.2579 54.3557C30.2579 54.4698 30.2968 54.5658 30.372 54.6436C30.4472 54.7214 30.5458 54.7602 30.6599 54.7602C30.774 54.7525 30.8777 54.7214 30.9529 54.6436C31.0281 54.5684 31.0644 54.4724 31.0644 54.3583L31.0696 52.6883C31.0722 52.5016 31.1293 52.3538 31.2408 52.2345C31.3523 52.1152 31.4923 52.0659 31.6686 52.0582C31.8372 52.0582 31.9694 52.1074 32.0706 52.2086C32.1717 52.3071 32.221 52.4679 32.221 52.6831L32.2158 54.3609C32.2158 54.475 32.2547 54.5709 32.3299 54.6487C32.4051 54.7265 32.5036 54.7654 32.6177 54.7654C32.7344 54.7654 32.833 54.7265 32.9082 54.6487C32.9834 54.5735 33.0197 54.4776 33.0197 54.3635L33.0249 52.6857C33.0249 52.4005 32.9756 52.1541 32.8719 51.9493C32.7681 51.7418 32.6203 51.581 32.431 51.4721L32.4258 51.4773Z" fill="white"/>
<path d="M38.6965 52.4705C38.6109 52.4342 38.5227 52.4316 38.4345 52.4627C38.349 52.4912 38.279 52.5457 38.2219 52.6209C38.17 52.6909 38.0948 52.7661 37.9963 52.8387C37.8978 52.9113 37.7966 52.9658 37.6929 52.9995C37.4984 53.0617 37.3117 53.0721 37.1354 53.0358C36.9616 52.9995 36.806 52.9191 36.6764 52.8024C36.6193 52.7505 36.5701 52.6909 36.526 52.626L38.5305 51.9933C38.6316 51.9622 38.7068 51.9026 38.7535 51.817C38.8002 51.7314 38.808 51.6329 38.7794 51.5369C38.6809 51.2283 38.5357 50.969 38.3438 50.7693C38.1493 50.5645 37.9159 50.427 37.6462 50.3596C37.3791 50.2922 37.0861 50.3078 36.7801 50.4037C36.4689 50.5022 36.2122 50.663 36.0125 50.8783C35.8154 51.0961 35.6858 51.3528 35.6261 51.6458C35.5665 51.9363 35.5898 52.2449 35.691 52.5664C35.7921 52.8854 35.9555 53.1499 36.1785 53.3495C36.4015 53.5518 36.666 53.6841 36.9668 53.7437C37.0757 53.7644 37.1872 53.7774 37.3013 53.7774C37.4984 53.7774 37.7007 53.7463 37.9055 53.6789C38.0871 53.6218 38.2686 53.5259 38.4449 53.3988C38.6213 53.2692 38.7639 53.1265 38.865 52.9787C38.9506 52.8568 38.9376 52.7505 38.9117 52.6805C38.878 52.5871 38.8054 52.5171 38.6965 52.4679V52.4705ZM36.3419 51.8014C36.3652 51.6329 36.4326 51.4902 36.5415 51.3632C36.6504 51.2387 36.8034 51.1428 36.9953 51.0831C37.0913 51.052 37.182 51.039 37.2676 51.039C37.3324 51.039 37.3921 51.0468 37.4517 51.065C37.5892 51.1039 37.7136 51.1791 37.8174 51.2906C37.8666 51.345 37.9133 51.4047 37.9522 51.4721L36.3315 51.9829C36.3315 51.9233 36.3315 51.8637 36.3419 51.8066V51.8014Z" fill="white"/>
<path d="M43.7529 48.5313C43.5636 48.2487 43.3458 48.0412 43.1046 47.9167C42.8608 47.7923 42.6067 47.7404 42.3448 47.7637C42.0881 47.7871 41.8365 47.8804 41.598 48.0386C41.3698 48.1916 41.196 48.3809 41.0768 48.6065C41.0456 48.6662 41.0197 48.7258 40.9964 48.788C40.9497 48.7517 40.8978 48.7284 40.8382 48.7154C40.7345 48.6947 40.6333 48.7154 40.5348 48.7829C40.4414 48.8451 40.3818 48.9307 40.3584 49.0344C40.3351 49.1407 40.3584 49.2418 40.4233 49.3404L41.878 51.5161C41.9403 51.612 42.0284 51.669 42.1348 51.6898C42.1607 51.695 42.1866 51.6976 42.2126 51.6976C42.2904 51.6976 42.3656 51.6742 42.4382 51.625C42.5367 51.5601 42.5963 51.472 42.6145 51.3656C42.6326 51.2619 42.6119 51.1608 42.5471 51.0648L41.6239 49.6853C41.5565 49.5841 41.5254 49.4778 41.528 49.3637C41.528 49.2444 41.5643 49.1277 41.6291 49.0136C41.6939 48.8995 41.7899 48.7984 41.9118 48.718C42.0466 48.6273 42.184 48.5728 42.3215 48.5547C42.4563 48.5365 42.5834 48.5598 42.713 48.6221C42.8427 48.6843 42.9646 48.8036 43.0787 48.9722L43.8826 50.1728C43.9448 50.2687 44.033 50.3258 44.1393 50.3465C44.2456 50.3673 44.3467 50.3465 44.4427 50.2817C44.5386 50.2195 44.5957 50.1313 44.6164 50.025C44.6372 49.9187 44.6164 49.8175 44.5516 49.7216L43.7477 48.5209L43.7529 48.5313Z" fill="white"/>
<path d="M45.4873 45.2044C45.4018 45.124 45.3032 45.0825 45.1969 45.0903C45.0906 45.0955 44.9972 45.1396 44.9168 45.2277C44.839 45.3107 44.8027 45.4066 44.8027 45.513C44.8027 45.6219 44.8494 45.7152 44.9376 45.7982L46.8539 47.5745C46.9343 47.6471 47.0251 47.686 47.1262 47.686C47.1314 47.686 47.1366 47.686 47.1418 47.686C47.2507 47.6809 47.344 47.6368 47.4218 47.5538C47.5022 47.4682 47.5411 47.3671 47.5333 47.2608C47.5282 47.1544 47.4815 47.0611 47.3985 46.9859L45.4821 45.2096L45.4873 45.2044Z" fill="white"/>
<path d="M44.661 44.3203C44.5624 44.2295 44.4431 44.1854 44.3083 44.1906C44.1735 44.1958 44.0568 44.2476 43.966 44.3462C43.8752 44.4447 43.8312 44.5614 43.8363 44.6989C43.8415 44.8337 43.8934 44.9504 43.9919 45.0412C44.0853 45.1267 44.1968 45.1708 44.3239 45.1708C44.3316 45.1708 44.3368 45.1708 44.3446 45.1708C44.4795 45.1656 44.5961 45.1138 44.6869 45.0152C44.7777 44.9167 44.8218 44.8 44.8166 44.6625C44.8114 44.5277 44.7595 44.411 44.661 44.3203Z" fill="white"/>
</g>
<defs>
<clipPath id="clip0_376_11593">
<rect width="62" height="62" fill="white"/>
</clipPath>
</defs>
</svg>
