<svg width="506" height="506" viewBox="0 0 506 506" fill="none" xmlns="http://www.w3.org/2000/svg">
<mask id="mask0_233_1890" style="mask-type:alpha" maskUnits="userSpaceOnUse" x="0" y="0" width="506" height="506">
<circle cx="253" cy="253" r="253" fill="#D9D9D9"/>
</mask>
<g mask="url(#mask0_233_1890)">
</g>
<g clip-path="url(#clip0_233_1890)">
<path d="M4.23413 253.01C4.23413 390.404 115.618 501.788 253.012 501.788C390.406 501.788 501.79 390.404 501.79 253.01C501.79 115.616 390.406 4.23193 253.012 4.23193C115.618 4.23193 4.23413 115.616 4.23413 253.01Z" fill="#FF5124"/>
<path d="M348.022 185.563C345.419 179.574 340.699 174.833 334.689 172.23C328.255 169.436 320.89 169.436 314.456 172.23C310.054 174.135 306.287 177.246 303.578 181.182C298.816 177.881 293.737 175.066 288.467 172.78C277.357 167.976 265.59 165.521 253.505 165.521C241.421 165.521 229.654 167.955 218.543 172.78C213.04 175.172 207.75 178.134 202.797 181.648C200.067 177.5 196.194 174.24 191.602 172.251C185.168 169.457 177.803 169.457 171.369 172.251C165.359 174.854 160.639 179.574 158.036 185.584C156.64 188.801 155.941 192.208 155.941 195.7C155.941 199.192 156.64 202.6 158.036 205.816C160.639 211.806 165.359 216.546 171.369 219.15C171.645 219.276 171.92 219.382 172.195 219.488C167.56 230.43 165.19 241.985 165.19 253.858V370.384L170.417 366.977C172.576 365.58 174.883 364.078 177.253 362.723C200.406 349.306 226.776 342.195 253.526 342.195C265.611 342.195 277.378 339.761 288.489 334.935C309.229 325.962 325.61 309.581 334.583 288.841C339.387 277.73 341.842 265.963 341.842 253.879C341.842 241.795 339.429 230.218 334.71 219.171C340.72 216.568 345.44 211.848 348.043 205.838C349.44 202.621 350.138 199.213 350.138 195.721C350.138 192.229 349.44 188.822 348.043 185.605L348.022 185.563ZM341.821 203.108C339.916 207.531 336.424 211.002 332.001 212.927C331.197 213.287 330.287 213.583 329.207 213.859L325.207 214.874L326.985 218.599C327.451 219.573 327.916 220.567 328.361 221.562C332.805 231.826 335.049 242.705 335.049 253.858C335.049 265.011 332.805 275.889 328.361 286.153C320.065 305.328 304.933 320.438 285.78 328.735C275.515 333.179 264.658 335.422 253.505 335.422C225.569 335.422 198.014 342.829 173.824 356.861C173.189 357.242 172.555 357.602 171.92 357.983V253.837C171.92 242.662 174.163 231.805 178.629 221.541C179.031 220.61 179.454 219.7 179.898 218.79L181.74 214.917L177.549 214.028C176.343 213.774 175.158 213.393 174.036 212.906C169.613 211.002 166.142 207.51 164.216 203.086C163.2 200.716 162.671 198.219 162.671 195.658C162.671 193.097 163.2 190.6 164.216 188.23C166.121 183.806 169.613 180.336 174.036 178.41C176.406 177.394 178.904 176.865 181.464 176.865C184.025 176.865 186.544 177.373 188.893 178.41C193.21 180.272 196.66 183.679 198.586 187.997L200.342 191.912L203.729 189.288C209.146 185.097 215.03 181.626 221.188 178.96C231.453 174.516 242.31 172.272 253.463 172.272C264.616 172.272 275.494 174.537 285.759 178.981C291.706 181.563 297.356 184.865 302.562 188.801L305.864 191.298L307.663 187.573C309.631 183.468 312.996 180.23 317.144 178.452C321.864 176.399 327.281 176.399 332.001 178.452C336.424 180.357 339.895 183.849 341.821 188.272C342.837 190.642 343.366 193.139 343.366 195.7C343.366 198.261 342.837 200.78 341.821 203.129V203.108Z" fill="white"/>
<path d="M201.04 228.863C196.68 228.863 193.167 232.397 193.167 236.736C193.167 241.074 196.702 244.609 201.04 244.609C205.379 244.609 208.913 241.074 208.913 236.736C208.913 232.397 205.379 228.863 201.04 228.863Z" fill="white"/>
<path d="M304.973 228.863C300.613 228.863 297.1 232.397 297.1 236.736C297.1 241.074 300.634 244.609 304.973 244.609C309.311 244.609 312.846 241.074 312.846 236.736C312.846 232.397 309.311 228.863 304.973 228.863Z" fill="white"/>
<path d="M264.637 263.931H241.378C236.595 263.931 233.95 269.454 236.934 273.2L241.251 278.576L248.553 287.676C249.272 288.586 250.204 289.158 251.22 289.496V300.967C248.849 300.776 246.585 300.163 243.77 298.089C243.558 300.247 244.659 302.427 246.415 303.909C248.193 305.411 250.563 306.11 252.786 306.11C254.987 306.11 257.378 305.411 259.156 303.909C260.912 302.427 262.013 300.247 261.801 298.089C258.965 300.142 256.722 300.776 254.352 300.967V289.666C255.537 289.39 256.637 288.734 257.463 287.697L264.764 278.597L269.082 273.221C272.066 269.497 269.42 263.952 264.637 263.952V263.931Z" fill="white"/>
<path d="M148.645 97.6531C145.936 94.3305 142.508 91.9601 138.762 90.5633C134.91 89.1031 130.741 88.7009 126.677 89.3359C122.72 89.9708 118.889 91.6215 115.588 94.3305C112.265 97.0394 109.895 100.468 108.498 104.214C107.059 108.066 106.635 112.235 107.27 116.298C107.905 120.256 109.556 124.086 112.244 127.388L135.206 155.493L143.481 148.721C142.338 147.324 141.555 145.758 141.09 144.128C140.201 140.996 140.539 137.631 142.042 134.732C142.825 133.229 143.904 131.853 145.301 130.711C148.624 128.002 150.994 124.573 152.412 120.827C153.851 116.975 154.275 112.806 153.64 108.743C153.005 104.785 151.354 100.955 148.666 97.6531H148.645ZM141.788 118.415C141.005 119.917 139.926 121.293 138.529 122.436C135.206 125.145 132.836 128.573 131.418 132.319C131.27 132.7 131.143 133.102 131.016 133.483L120.497 120.616C119.355 119.219 118.572 117.653 118.106 116.023C117.217 112.891 117.556 109.505 119.058 106.627C119.841 105.124 120.921 103.748 122.318 102.605C123.714 101.463 125.28 100.68 126.91 100.214C130.042 99.3251 133.428 99.6637 136.307 101.166C137.809 101.949 139.185 103.029 140.328 104.425C141.471 105.822 142.254 107.388 142.719 109.018C143.608 112.15 143.27 115.536 141.767 118.415H141.788Z" fill="white"/>
<path d="M215.438 71.4727C214.126 67.4093 211.798 63.9385 208.835 61.2507C205.788 58.4994 202.063 56.5735 198.042 55.7058C194.127 54.8593 189.957 54.9863 185.894 56.2772C181.831 57.5894 178.36 59.9174 175.672 62.8803C172.921 65.9278 170.995 69.6526 170.127 73.6737C169.281 77.589 169.408 81.7582 170.699 85.8216L174.614 98.0118C175.926 102.075 178.254 105.546 181.217 108.234C184.264 110.985 187.989 112.911 192.01 113.779C195.926 114.625 200.095 114.498 204.158 113.207C208.243 111.895 211.692 109.567 214.38 106.604C217.132 103.557 219.057 99.8107 219.925 95.8108C220.772 91.8955 220.645 87.7263 219.354 83.6629L215.438 71.4727ZM209.703 92.0648C209.386 95.3029 207.841 98.3293 205.386 100.467C204.116 101.588 202.592 102.477 200.878 103.006C199.164 103.557 197.407 103.726 195.735 103.557C192.497 103.239 189.471 101.694 187.333 99.2393C186.212 97.9695 185.344 96.4457 184.794 94.7315L180.878 82.5412C180.328 80.827 180.159 79.0916 180.328 77.3985C180.645 74.1605 182.19 71.1341 184.645 68.9965C185.915 67.8749 187.439 67.0072 189.153 66.4569C190.868 65.9067 192.603 65.7374 194.296 65.9067C197.534 66.2241 200.56 67.7691 202.698 70.224C203.82 71.4938 204.687 73.0176 205.238 74.7319L209.153 86.9221C209.703 88.6363 209.872 90.3718 209.703 92.0648Z" fill="white"/>
<path d="M256.009 69.4191C256.052 65.144 254.93 61.1229 252.962 57.6521C252.39 56.6363 251.734 55.6839 251.036 54.795C249.47 52.8056 247.607 51.0702 245.491 49.6523C245.152 49.4195 244.793 49.2078 244.454 48.9962C242.422 47.7899 240.179 46.8798 237.787 46.3296L237.682 57.5251C240.666 58.8373 243.036 61.2711 244.306 64.2763C244.962 65.8424 245.322 67.5567 245.322 69.3556L245.004 105.651L274.379 105.905L274.464 95.1963L255.798 95.027L256.03 69.4191H256.009Z" fill="white"/>
<path d="M342.528 77.3348C341.83 73.2925 340.073 69.4619 337.449 66.2874C334.909 63.1975 331.544 60.7213 327.523 59.2399C323.502 57.7584 319.354 57.441 315.397 58.1182C311.333 58.8166 307.524 60.5732 304.37 63.1975C301.281 65.7371 298.804 69.1021 297.323 73.1232L292.879 85.123C291.397 89.144 291.08 93.2921 291.757 97.2497C292.455 101.313 294.212 105.123 296.836 108.276C299.376 111.366 302.741 113.842 306.762 115.323L328.793 123.493L341.407 89.4403C342.888 85.4192 343.206 81.2712 342.528 77.3136V77.3348ZM331.375 85.7367L322.486 109.736L310.487 105.292C308.794 104.657 307.333 103.726 306.106 102.541C303.757 100.297 302.339 97.2074 302.169 93.9482C302.085 92.2551 302.318 90.5197 302.952 88.8266L307.397 76.8268C308.011 75.1337 308.963 73.6735 310.148 72.446C312.391 70.0968 315.481 68.6789 318.74 68.5095C320.434 68.4249 322.169 68.6577 323.862 69.2926C325.555 69.9063 327.015 70.8587 328.243 72.0439C330.592 74.2872 332.01 77.3771 332.179 80.6363C332.264 82.3294 332.031 84.0648 331.396 85.7579L331.375 85.7367Z" fill="white"/>
<path d="M398.167 102.034C394.992 99.1768 391.225 97.3567 387.31 96.5313C383.289 95.6848 379.098 95.9176 375.183 97.1874C371.373 98.4149 367.839 100.637 364.982 103.812L340.75 130.837L348.707 137.991C349.914 136.657 351.332 135.62 352.877 134.922C355.839 133.568 359.226 133.377 362.315 134.414C363.289 134.732 364.22 135.197 365.109 135.747L356.686 145.123L364.643 152.276L374.294 141.525C375.395 141.927 376.516 142.266 377.659 142.499C381.68 143.345 385.871 143.112 389.786 141.843C393.595 140.615 397.13 138.393 399.987 135.218C402.844 132.023 404.664 128.277 405.489 124.361C406.336 120.34 406.103 116.15 404.833 112.235C403.606 108.425 401.383 104.891 398.209 102.034H398.167ZM394.611 123.578C394.082 125.187 393.214 126.711 392.008 128.044C390.802 129.377 389.384 130.414 387.839 131.113C384.876 132.467 381.49 132.658 378.4 131.621C376.791 131.091 375.268 130.224 373.934 129.017C370.76 126.16 366.993 124.34 363.077 123.515C362.675 123.43 362.273 123.367 361.85 123.303L372.94 110.944C374.146 109.61 375.564 108.573 377.109 107.875C380.072 106.521 383.458 106.33 386.548 107.367C388.156 107.896 389.68 108.764 391.013 109.97C392.347 111.177 393.384 112.594 394.082 114.139C395.436 117.102 395.627 120.488 394.59 123.578H394.611Z" fill="white"/>
<path d="M63.6114 263.677C65.2199 263.677 66.7436 263.233 68.0558 262.492C69.3891 261.709 70.5108 260.588 71.2938 259.254C72.0557 257.942 72.479 256.44 72.479 254.81C72.479 253.18 72.0345 251.678 71.2938 250.366C70.5108 249.032 69.3891 247.911 68.0558 247.128C66.7436 246.366 65.241 245.942 63.6114 245.942C61.9818 245.942 60.4792 246.387 59.1671 247.128C57.8338 247.911 56.7121 249.032 55.9291 250.366C55.1672 251.678 54.7439 253.18 54.7439 254.81V257.032H58.7861V254.81C58.7861 254.133 58.9343 253.477 59.1882 252.905C59.675 251.784 60.585 250.873 61.7067 250.387C62.2993 250.133 62.9342 249.985 63.6114 249.985C64.2887 249.985 64.9447 250.133 65.5162 250.387C66.6378 250.873 67.5479 251.784 68.0346 252.905C68.2886 253.498 68.4367 254.133 68.4367 254.81C68.4367 255.487 68.2886 256.143 68.0346 256.715C67.5479 257.836 66.6378 258.746 65.5162 259.233C64.9236 259.487 64.2887 259.635 63.6114 259.635C62.003 259.635 60.4792 260.08 59.1671 260.82C57.8338 261.603 56.7121 262.725 55.9291 264.058C55.1672 265.371 54.7439 266.873 54.7439 268.503H72.479V264.461H60.966C61.1988 264.312 61.4316 264.164 61.6855 264.058C62.2781 263.804 62.913 263.656 63.5903 263.656L63.6114 263.677Z" fill="white"/>
<path d="M92.6913 247.128C91.3791 246.366 89.8765 245.942 88.2469 245.942C86.6173 245.942 85.1147 246.387 83.8026 247.128C82.4693 247.911 81.3476 249.032 80.5646 250.366C79.8027 251.678 79.3794 253.18 79.3794 254.81V259.635C79.3794 261.244 79.8238 262.767 80.5646 264.08C81.3476 265.413 82.4693 266.535 83.8026 267.318C85.1147 268.079 86.6173 268.503 88.2469 268.503C89.8765 268.503 91.3791 268.058 92.6913 267.318C94.0246 266.535 95.1463 265.413 95.9293 264.08C96.6912 262.767 97.1145 261.265 97.1145 259.635V254.81C97.1145 253.201 96.67 251.678 95.9293 250.366C95.1463 249.032 94.0246 247.911 92.6913 247.128ZM93.0934 259.635C93.0934 260.312 92.9453 260.969 92.6913 261.54C92.2045 262.662 91.2945 263.572 90.1728 264.058C89.5802 264.312 88.9453 264.461 88.2681 264.461C87.5909 264.461 86.9348 264.312 86.3634 264.058C85.2417 263.572 84.3317 262.662 83.8449 261.54C83.5909 260.947 83.4428 260.312 83.4428 259.635V254.81C83.4428 254.133 83.5909 253.477 83.8449 252.905C84.3317 251.784 85.2417 250.873 86.3634 250.387C86.956 250.133 87.5909 249.985 88.2681 249.985C88.9453 249.985 89.6014 250.133 90.1728 250.387C91.2945 250.873 92.2045 251.784 92.6913 252.905C92.9453 253.498 93.0934 254.133 93.0934 254.81V259.635Z" fill="white"/>
<path d="M423.161 263.677C424.769 263.677 426.293 263.233 427.605 262.492C428.938 261.709 430.06 260.588 430.843 259.254C431.605 257.942 432.028 256.44 432.028 254.81C432.028 253.18 431.584 251.678 430.843 250.366C430.06 249.032 428.938 247.911 427.605 247.128C426.293 246.366 424.79 245.942 423.161 245.942C421.531 245.942 420.028 246.387 418.716 247.128C417.383 247.911 416.261 249.032 415.478 250.366C414.716 251.678 414.293 253.18 414.293 254.81V257.032H418.335V254.81C418.335 254.133 418.483 253.477 418.737 252.905C419.224 251.784 420.134 250.873 421.256 250.387C421.848 250.133 422.483 249.985 423.161 249.985C423.838 249.985 424.494 250.133 425.065 250.387C426.187 250.873 427.097 251.784 427.584 252.905C427.838 253.498 427.986 254.133 427.986 254.81C427.986 255.487 427.838 256.143 427.584 256.715C427.097 257.836 426.187 258.746 425.065 259.233C424.473 259.487 423.838 259.635 423.161 259.635C421.552 259.635 420.028 260.08 418.716 260.82C417.383 261.603 416.261 262.725 415.478 264.058C414.716 265.371 414.293 266.873 414.293 268.503H432.028V264.461H420.515C420.748 264.312 420.981 264.164 421.235 264.058C421.827 263.804 422.462 263.656 423.139 263.656L423.161 263.677Z" fill="white"/>
<path d="M447.437 264.461V246.134H443.204C442.717 247.255 441.807 248.165 440.686 248.652C440.093 248.906 439.458 249.054 438.781 249.054V253.097C440.389 253.097 441.913 252.652 443.225 251.911C443.289 251.869 443.352 251.827 443.416 251.806V264.483H438.802V268.525H452.072V264.483H447.458L447.437 264.461Z" fill="white"/>
<path d="M141.303 372.163C139.462 370.279 137.346 368.988 134.996 368.353C132.647 367.719 130.256 367.697 127.864 368.311C125.494 368.925 123.314 370.152 121.367 371.994L105.706 387.21C105.029 387.866 104.69 388.628 104.69 389.517C104.69 390.406 105.008 391.189 105.643 391.845C106.32 392.543 107.103 392.882 107.971 392.882C108.838 392.882 109.621 392.543 110.277 391.909L118.066 384.332C118.129 385.454 118.341 386.575 118.7 387.676C119.272 389.475 120.288 391.104 121.685 392.543C123.42 394.321 125.452 395.506 127.716 396.057C128.732 396.311 129.769 396.438 130.806 396.438C132.055 396.438 133.325 396.247 134.594 395.887C136.901 395.231 139.018 393.961 140.922 392.099C142.827 390.237 144.139 388.099 144.795 385.729C145.451 383.358 145.515 380.967 144.922 378.597C144.351 376.226 143.102 374.046 141.261 372.142L141.303 372.163ZM138.806 383.866C138.404 385.2 137.621 386.448 136.499 387.528C135.399 388.607 134.15 389.327 132.795 389.708C131.441 390.067 130.108 390.088 128.796 389.75C127.505 389.411 126.341 388.713 125.304 387.676C124.288 386.639 123.653 385.475 123.335 384.141C123.039 382.829 123.081 381.496 123.505 380.163C123.928 378.829 124.69 377.623 125.79 376.544C126.912 375.443 128.182 374.703 129.515 374.322C130.213 374.131 130.912 374.025 131.61 374.025C132.245 374.025 132.88 374.11 133.494 374.279C134.806 374.618 135.97 375.316 136.965 376.332C137.98 377.39 138.658 378.575 138.933 379.866C139.229 381.179 139.166 382.512 138.764 383.845L138.806 383.866Z" fill="white"/>
<path d="M176.816 399.273C174.509 397.96 172.118 397.304 169.726 397.347C167.335 397.368 165.07 398.024 162.996 399.315C160.944 400.585 159.208 402.426 157.854 404.817C156.499 407.188 155.843 409.643 155.885 412.098C155.928 414.553 156.605 416.881 157.917 418.997C159.229 421.113 161.113 422.87 163.526 424.246C164.88 425.007 166.446 425.579 168.203 425.917C169.261 426.129 170.256 426.214 171.208 426.214C171.843 426.214 172.457 426.171 173.049 426.087C174.255 425.917 174.827 425.24 175.081 424.711C175.441 423.992 175.462 423.166 175.144 422.235C174.89 421.537 174.404 420.986 173.726 420.627C173.07 420.288 172.372 420.161 171.589 420.246C170.89 420.33 170.023 420.288 169.028 420.119C168.055 419.949 167.144 419.632 166.383 419.187C164.943 418.362 163.822 417.325 163.06 416.055C162.298 414.785 161.917 413.452 161.917 412.013C161.917 411.378 161.981 410.743 162.129 410.129L177.07 418.574C177.811 418.997 178.594 419.103 179.356 418.912C180.139 418.722 180.753 418.235 181.176 417.494C182.467 415.188 183.208 412.881 183.335 410.616C183.483 408.309 182.996 406.151 181.917 404.182C180.837 402.214 179.123 400.564 176.816 399.251V399.273ZM176.986 412.203L164.901 405.368C165.261 405.029 165.621 404.712 166.023 404.458C167.166 403.675 168.393 403.251 169.748 403.209C171.102 403.167 172.52 403.548 173.959 404.352C175.187 405.05 176.097 405.939 176.626 406.955C177.155 407.992 177.388 409.156 177.303 410.383C177.261 410.976 177.155 411.59 176.986 412.203Z" fill="white"/>
<path d="M209.936 401.497C209.048 401.222 208.201 401.306 207.46 401.73C206.698 402.132 206.191 402.809 205.915 403.698L198.508 428.777C197.979 430.533 197.831 432.226 198.064 433.771C198.297 435.359 198.868 436.755 199.778 437.898C200.709 439.083 201.937 439.909 203.46 440.353H203.545C204.095 440.544 204.624 440.628 205.111 440.628C205.598 440.628 206.064 440.544 206.508 440.396C207.46 440.057 208.116 439.38 208.392 438.448C208.646 437.581 208.603 436.755 208.265 436.015C207.905 435.253 207.27 434.724 206.445 434.491L205.302 434.152C205.154 434.11 204.751 433.983 204.561 433.179C204.392 432.459 204.455 431.613 204.73 430.618L212.138 405.539C212.391 404.65 212.328 403.804 211.905 403.042C211.503 402.28 210.825 401.772 209.936 401.497Z" fill="white"/>
<path d="M264.645 420.121C263.121 419.254 261.343 418.809 259.396 418.788C257.216 418.788 255.185 419.254 253.449 420.206C252.539 420.693 251.735 421.307 251.037 422.005C250.38 421.222 249.597 420.566 248.687 420.058C247.164 419.19 245.386 418.746 243.439 418.725C241.449 418.746 239.566 419.211 237.957 420.164C237.703 420.312 237.45 420.481 237.196 420.672C237.047 420.397 236.857 420.143 236.645 419.91C236.032 419.296 235.249 418.979 234.275 418.979C233.386 419.021 232.561 419.275 231.947 419.889C231.312 420.502 230.995 421.307 230.995 422.259L230.931 443.571C230.931 444.502 231.249 445.285 231.862 445.92C232.476 446.555 233.28 446.872 234.211 446.872C235.143 446.83 235.989 446.555 236.603 445.92C237.217 445.306 237.513 444.523 237.513 443.592L237.555 429.962C237.577 428.439 238.042 427.232 238.973 426.28C239.904 425.306 241.069 424.756 242.486 424.82C243.862 424.82 244.941 425.222 245.767 426.047C246.592 426.851 246.994 428.164 246.994 429.92L246.952 443.613C246.952 444.544 247.269 445.327 247.883 445.962C248.497 446.597 249.301 446.914 250.232 446.914C251.164 446.851 252.01 446.597 252.624 445.962C253.238 445.348 253.534 444.565 253.534 443.634L253.576 430.005C253.597 428.481 254.063 427.275 254.973 426.301C255.883 425.328 257.026 424.926 258.465 424.862C259.841 424.862 260.92 425.264 261.745 426.09C262.571 426.894 262.973 428.206 262.973 429.962L262.93 443.655C262.93 444.586 263.248 445.37 263.862 446.004C264.475 446.639 265.28 446.957 266.211 446.957C267.163 446.957 267.967 446.639 268.581 446.004C269.195 445.391 269.491 444.608 269.491 443.676L269.534 429.984C269.534 427.656 269.131 425.645 268.285 423.973C267.438 422.28 266.232 420.968 264.687 420.079L264.645 420.121Z" fill="white"/>
<path d="M315.817 428.226C315.119 427.93 314.399 427.909 313.679 428.163C312.981 428.396 312.41 428.84 311.944 429.454C311.521 430.025 310.907 430.639 310.103 431.232C309.299 431.824 308.473 432.269 307.627 432.544C306.039 433.052 304.516 433.136 303.076 432.84C301.659 432.544 300.389 431.888 299.331 430.935C298.865 430.512 298.463 430.025 298.103 429.496L314.462 424.332C315.288 424.078 315.902 423.592 316.283 422.893C316.663 422.195 316.727 421.391 316.494 420.608C315.69 418.089 314.505 415.973 312.939 414.343C311.351 412.671 309.447 411.55 307.246 410.999C305.066 410.449 302.674 410.576 300.177 411.359C297.637 412.163 295.542 413.475 293.913 415.232C292.304 417.01 291.246 419.105 290.759 421.496C290.273 423.867 290.463 426.385 291.288 429.01C292.114 431.613 293.447 433.771 295.267 435.401C297.087 437.052 299.246 438.131 301.701 438.618C302.59 438.787 303.5 438.893 304.431 438.893C306.039 438.893 307.69 438.639 309.362 438.089C310.843 437.623 312.325 436.84 313.764 435.803C315.203 434.745 316.367 433.581 317.193 432.375C317.891 431.38 317.785 430.512 317.574 429.941C317.298 429.179 316.706 428.607 315.817 428.205V428.226ZM296.6 422.766C296.791 421.391 297.341 420.227 298.23 419.19C299.119 418.174 300.368 417.391 301.934 416.904C302.717 416.65 303.457 416.544 304.156 416.544C304.685 416.544 305.172 416.608 305.658 416.756C306.78 417.073 307.796 417.687 308.642 418.597C309.045 419.041 309.426 419.528 309.743 420.079L296.516 424.248C296.516 423.761 296.516 423.274 296.6 422.809V422.766Z" fill="white"/>
<path d="M357.088 396.078C355.543 393.772 353.765 392.078 351.797 391.063C349.808 390.047 347.734 389.623 345.596 389.814C343.501 390.004 341.448 390.766 339.501 392.057C337.639 393.306 336.221 394.851 335.247 396.692C334.993 397.179 334.782 397.666 334.591 398.174C334.21 397.877 333.787 397.687 333.3 397.581C332.454 397.412 331.628 397.581 330.824 398.131C330.062 398.639 329.575 399.338 329.385 400.184C329.194 401.052 329.385 401.877 329.914 402.681L341.787 420.438C342.295 421.221 343.014 421.686 343.882 421.856C344.094 421.898 344.305 421.919 344.517 421.919C345.152 421.919 345.765 421.729 346.358 421.327C347.162 420.797 347.649 420.078 347.797 419.21C347.945 418.364 347.776 417.538 347.247 416.755L339.713 405.496C339.162 404.671 338.908 403.803 338.93 402.872C338.93 401.898 339.226 400.946 339.755 400.015C340.284 399.084 341.067 398.258 342.062 397.602C343.162 396.861 344.284 396.417 345.406 396.269C346.506 396.121 347.543 396.311 348.601 396.819C349.66 397.327 350.654 398.301 351.585 399.676L358.146 409.475C358.654 410.258 359.374 410.724 360.241 410.893C361.109 411.062 361.934 410.893 362.717 410.364C363.501 409.856 363.966 409.136 364.135 408.269C364.305 407.401 364.135 406.576 363.606 405.792L357.046 395.994L357.088 396.078Z" fill="white"/>
<path d="M371.245 368.926C370.547 368.27 369.743 367.931 368.875 367.995C368.007 368.037 367.245 368.397 366.589 369.117C365.954 369.794 365.658 370.577 365.658 371.445C365.658 372.333 366.039 373.095 366.759 373.773L382.399 388.27C383.055 388.862 383.795 389.18 384.621 389.18C384.663 389.18 384.705 389.18 384.748 389.18C385.637 389.137 386.399 388.777 387.033 388.1C387.69 387.402 388.007 386.576 387.943 385.709C387.901 384.841 387.52 384.079 386.843 383.465L371.203 368.968L371.245 368.926Z" fill="white"/>
<path d="M364.493 361.708C363.689 360.968 362.715 360.608 361.615 360.65C360.514 360.693 359.562 361.116 358.821 361.92C358.081 362.724 357.721 363.677 357.763 364.798C357.805 365.899 358.229 366.851 359.033 367.592C359.795 368.29 360.705 368.65 361.742 368.65C361.805 368.65 361.848 368.65 361.911 368.65C363.012 368.608 363.964 368.185 364.705 367.38C365.445 366.576 365.805 365.624 365.763 364.502C365.721 363.402 365.297 362.449 364.493 361.708Z" fill="white"/>
</g>
<defs>
<clipPath id="clip0_233_1890">
<rect width="506" height="506" fill="white"/>
</clipPath>
</defs>
</svg>
