<svg aria-hidden="true" style="position: absolute; width: 0; height: 0; overflow: hidden;" version="1.1" xmlns="http://www.w3.org/2000/svg" xmlns:xlink="http://www.w3.org/1999/xlink">
<defs>
<symbol id="icon-facebook" viewBox="0 0 32 32">
<path fill="#df643a" style="fill: var(--color1, #df643a)" d="M32 16c0 8.837-7.163 16-16 16s-16-7.163-16-16c0-8.837 7.163-16 16-16s16 7.163 16 16z"></path>
<path fill="#12130f" style="fill: var(--color2, #12130f)" d="M15.999 9.939c-3.347 0-6.061 2.713-6.061 6.061 0 3.025 2.216 5.532 5.114 5.987v-4.236h-1.539v-1.752h1.539v-1.335c0-1.519 0.904-2.358 2.289-2.358 0.663 0 1.356 0.118 1.356 0.118v1.491h-0.764c-0.753 0-0.988 0.467-0.988 0.947v1.137h1.681l-0.268 1.752h-1.412v4.236c2.897-0.454 5.113-2.963 5.113-5.987 0-3.347-2.713-6.061-6.061-6.061z"></path>
</symbol>


<symbol id="icon-instagram" viewBox="0 0 32 32">
<path fill="#df643a" style="fill: var(--color1, #df643a)" opacity="0.1" d="M32 16c0 8.837-7.163 16-16 16s-16-7.163-16-16c0-8.837 7.163-16 16-16s16 7.163 16 16z"></path>
<path fill="#df643a" style="fill: var(--color1, #df643a)" opacity="0.8" d="M15.999 14.182c-0.482 0-0.945 0.191-1.286 0.533s-0.533 0.803-0.533 1.286c0 0.482 0.192 0.945 0.533 1.286s0.803 0.532 1.286 0.532 0.945-0.192 1.286-0.532c0.341-0.341 0.533-0.803 0.533-1.286s-0.192-0.945-0.533-1.286c-0.341-0.341-0.803-0.533-1.286-0.533zM15.999 12.97c0.804 0 1.574 0.319 2.143 0.887s0.888 1.339 0.888 2.143c0 0.804-0.319 1.574-0.888 2.143s-1.339 0.888-2.143 0.888c-0.804 0-1.575-0.319-2.143-0.888s-0.887-1.339-0.887-2.143c0-0.804 0.319-1.575 0.887-2.143s1.339-0.887 2.143-0.887zM19.939 12.818c0 0.201-0.080 0.394-0.222 0.536s-0.335 0.222-0.536 0.222-0.394-0.080-0.536-0.222c-0.142-0.142-0.222-0.335-0.222-0.536s0.080-0.394 0.222-0.536c0.142-0.142 0.335-0.222 0.536-0.222s0.394 0.080 0.536 0.222c0.142 0.142 0.222 0.335 0.222 0.536zM15.999 11.152c-1.499 0-1.744 0.004-2.442 0.035-0.475 0.023-0.794 0.086-1.090 0.201-0.263 0.102-0.453 0.224-0.655 0.426-0.19 0.183-0.335 0.407-0.427 0.655-0.115 0.297-0.179 0.615-0.201 1.090-0.031 0.669-0.035 0.903-0.035 2.442 0 1.499 0.004 1.744 0.035 2.442 0.023 0.474 0.086 0.794 0.201 1.089 0.103 0.264 0.224 0.453 0.425 0.654 0.204 0.204 0.394 0.326 0.655 0.426 0.299 0.116 0.618 0.18 1.091 0.202 0.669 0.032 0.903 0.035 2.442 0.035 1.499 0 1.744-0.004 2.442-0.035 0.474-0.022 0.793-0.086 1.089-0.201 0.262-0.102 0.453-0.224 0.654-0.425 0.204-0.204 0.326-0.394 0.427-0.654 0.115-0.299 0.179-0.618 0.201-1.091 0.032-0.669 0.035-0.903 0.035-2.442 0-1.499-0.004-1.744-0.035-2.442-0.022-0.474-0.086-0.794-0.201-1.090-0.091-0.247-0.237-0.471-0.426-0.655-0.183-0.19-0.407-0.336-0.654-0.427-0.297-0.115-0.616-0.179-1.090-0.201-0.669-0.031-0.903-0.035-2.442-0.035zM15.999 9.939c1.647 0 1.852 0.006 2.498 0.036s1.085 0.131 1.471 0.282c0.4 0.154 0.737 0.363 1.074 0.699 0.308 0.303 0.547 0.669 0.699 1.074 0.15 0.386 0.252 0.826 0.282 1.472 0.029 0.646 0.036 0.851 0.036 2.498s-0.006 1.852-0.036 2.498c-0.030 0.645-0.132 1.085-0.282 1.472-0.152 0.405-0.39 0.771-0.699 1.074-0.303 0.308-0.669 0.546-1.074 0.699-0.386 0.15-0.826 0.252-1.471 0.282-0.646 0.029-0.852 0.036-2.498 0.036s-1.852-0.006-2.498-0.036c-0.646-0.030-1.085-0.132-1.472-0.282-0.405-0.152-0.771-0.39-1.074-0.699-0.308-0.303-0.547-0.669-0.699-1.074-0.15-0.386-0.252-0.826-0.282-1.472-0.028-0.646-0.036-0.852-0.036-2.498s0.006-1.852 0.036-2.498c0.030-0.646 0.132-1.085 0.282-1.472 0.152-0.405 0.39-0.771 0.699-1.074 0.303-0.308 0.669-0.547 1.074-0.699 0.387-0.15 0.825-0.252 1.472-0.282 0.646-0.028 0.851-0.036 2.498-0.036z"></path>
</symbol>

<symbol id="icon-arrow-2" viewBox="0 0 37 32">
<path d="M35.893 0.385c-0.255 0.655-1.93 4.473-2.483 5.657-4.214 9.031-9.269 14.37-17.419 18.399-2.868 1.418-6.154 2.662-9.735 3.688-1.951 0.559-4.837 1.266-4.901 1.201-0.016-0.016 0.448-1.077 1.032-2.358s1.070-2.353 1.081-2.383c0.019-0.050-0.535-0.322-0.575-0.282-0.010 0.010-0.569 1.226-1.241 2.702l-1.222 2.684 0.153 0.051c0.131 0.044 0.148 0.078 0.117 0.244l-0.035 0.193 2.49 0.855c1.369 0.47 2.515 0.854 2.546 0.854 0.081 0 0.243-0.52 0.18-0.579-0.029-0.027-0.912-0.345-1.962-0.706s-1.888-0.675-1.862-0.698c0.027-0.022 0.652-0.186 1.391-0.364 10.035-2.42 17.636-6.294 22.893-11.671 3.678-3.761 6.426-8.318 9.569-15.869 0.117-0.28 0.308-0.732 0.425-1.004l0.213-0.494-0.604-0.255-0.052 0.133z"></path>
</symbol>

<symbol id="icon-arrow-1" viewBox="0 0 34 32">
<path d="M0.22 0.27l-0.148 0.090 0.386 0.776c0.441 0.887 1.010 2.165 1.768 3.969 1.994 4.749 3.166 6.87 4.705 8.52 0.413 0.442 0.432 0.474 0.373 0.628-0.121 0.316-0.397 1.536-0.456 2.016-0.086 0.695-0.072 1.774 0.031 2.358 0.49 2.783 2.632 4.862 6.652 6.453 2.185 0.865 4.327 1.433 9.505 2.522 2.914 0.613 3.878 0.829 4.974 1.115 2.846 0.743 4.422 1.463 5.333 2.437l0.362 0.387-3.22 0.030v0.398h1.77c1.732 0 1.77-0.002 1.77-0.114 0-0.076 0.038-0.114 0.114-0.114 0.112 0 0.114-0.038 0.114-1.741v-1.741h-0.457v2.753l-0.334-0.31c-1.337-1.238-3.562-2.044-8.629-3.124l-3.254-0.694c-3.778-0.805-5.934-1.397-7.934-2.179-3.66-1.432-5.724-3.331-6.31-5.808-0.129-0.545-0.178-1.929-0.092-2.574 0.075-0.561 0.398-1.936 0.455-1.936 0.021 0 0.192 0.116 0.38 0.257 1.584 1.192 3.576 1.444 5.547 0.702 0.701-0.264 1.116-0.516 1.546-0.94 1.089-1.072 0.996-2.521-0.242-3.76-0.888-0.888-2.082-1.314-3.273-1.166-1.666 0.207-3.072 1.522-3.978 3.72l-0.181 0.439-0.316-0.325c-1.096-1.128-2.231-3.003-3.416-5.644-0.222-0.494-0.842-1.927-1.378-3.184-0.952-2.232-1.861-4.207-1.967-4.272-0.029-0.018-0.119 0.008-0.201 0.058zM12.931 9.944c0.646 0.138 1.562 0.689 1.945 1.168 0.872 1.092 0.864 2.214-0.023 3.060-0.543 0.518-1.571 0.966-2.593 1.13-0.613 0.098-1.721 0.043-2.259-0.112-0.547-0.158-1.189-0.485-1.737-0.887-0.243-0.178-0.442-0.336-0.442-0.351s0.091-0.263 0.203-0.553c0.773-2.005 2.125-3.322 3.612-3.518 0.414-0.055 0.847-0.034 1.295 0.062z"></path>
</symbol>


<symbol id="icon-facts-1" viewBox="0 0 34 32">
<path  style="" d="M22.528 15.701l4.096 4.096c-8.875 8.875-19.797 11.605-26.624 10.24l30.037-30.037 4.096 4.096-11.606 11.605z"></path>
</symbol>

<symbol id="icon-facts-4" viewBox="0 0 30 32">
<path  style="" d="M29.173 0.941v3.137c0 15.102-8.427 21.961-18.823 21.961h-2.983c0.332-4.725 1.802-7.585 5.643-10.982 1.889-1.671 1.73-2.635 0.798-2.081-6.406 3.811-9.587 8.963-9.728 17.189l-0.005 0.58h-3.137c0-2.137 0.181-4.079 0.542-5.854-0.362-2.030-0.542-4.785-0.542-8.264 0-8.663 7.023-15.686 15.686-15.686 3.137 0 6.275 1.569 12.549 0z"></path>
</symbol>

<symbol id="icon-facts-3" viewBox="0 0 32 32">
<path  style="" d="M16.001 30.815c-8.182 0-14.815-6.633-14.815-14.815s6.633-14.815 14.815-14.815 14.815 6.633 14.815 14.815c0 8.182-6.633 14.815-14.815 14.815zM17.482 16v-7.407h-2.963v10.37h8.889v-2.963h-5.926z"></path>
</symbol>

<symbol id="icon-facts-2" viewBox="0 0 34 32">
<path  style="" d="M9.956 2.844h23.111v3.556h-23.111v-3.556zM3.733 7.289c-1.473 0-2.667-1.194-2.667-2.667s1.194-2.667 2.667-2.667c1.473 0 2.667 1.194 2.667 2.667s-1.194 2.667-2.667 2.667zM3.733 19.733c-1.473 0-2.667-1.194-2.667-2.667s1.194-2.667 2.667-2.667c1.473 0 2.667 1.194 2.667 2.667s-1.194 2.667-2.667 2.667zM3.733 32c-1.473 0-2.667-1.194-2.667-2.667s1.194-2.667 2.667-2.667 2.667 1.194 2.667 2.667c0 1.473-1.194 2.667-2.667 2.667zM9.956 15.289h23.111v3.556h-23.111v-3.556zM9.956 27.733h23.111v3.556h-23.111v-3.556z"></path>
</symbol>
</defs>
</svg>
