<svg id="Слой_1" data-name="Слой 1" xmlns="http://www.w3.org/2000/svg" viewBox="0 0 170.08 170.08"><defs><style>.cls-1{fill:#76bfeb;}.cls-2{fill:#141414;}.cls-3{fill:#fff;}</style></defs><path class="cls-1" d="M2.82,85A82.22,82.22,0,1,0,85,2.82,82.22,82.22,0,0,0,2.82,85"/><path class="cls-2" d="M85,168.66A83.62,83.62,0,1,1,168.66,85,83.71,83.71,0,0,1,85,168.66M85,4.21A80.83,80.83,0,1,0,165.87,85,80.92,80.92,0,0,0,85,4.21"/><path class="cls-3" d="M115.41,63.19a7.35,7.35,0,0,0-3.82-3.82,7.31,7.31,0,0,0-5.8,0,7.37,7.37,0,0,0-3.7,3.56,28,28,0,0,0-34,.17,7.39,7.39,0,0,0-3.78-3.73,7.31,7.31,0,0,0-5.8,0,7.32,7.32,0,0,0,0,13.45,7.29,7.29,0,0,0,1.37.44c-.15.31-.29.62-.43.94a27.9,27.9,0,0,0-2.31,11.12v36.45c.76-.49,1.52-1,2.31-1.44A51.17,51.17,0,0,1,85.2,113.4a27.86,27.86,0,0,0,11.11-2.31A28.24,28.24,0,0,0,111,96.44a28,28,0,0,0,0-22.23c-.15-.35-.31-.69-.47-1a8.22,8.22,0,0,0,1.09-.37A7.35,7.35,0,0,0,115.41,69a7.22,7.22,0,0,0,0-5.81"/><path class="cls-2" d="M116.44,62.75h0a8.43,8.43,0,0,0-14.69-1.45,29,29,0,0,0-33.32.15,8.44,8.44,0,1,0-10.38,12.4l.27.11A28.78,28.78,0,0,0,56,85.32v38.51l1.73-1.12c.71-.47,1.48-1,2.26-1.41a50.29,50.29,0,0,1,25.21-6.79A29.17,29.17,0,0,0,112,73.85h0a8.44,8.44,0,0,0,5.1-7.76A8.36,8.36,0,0,0,116.44,62.75Zm-2,5.8a6.24,6.24,0,0,1-3.24,3.25,6.8,6.8,0,0,1-.93.3l-1.32.34.59,1.23c.16.32.31.65.45,1a26.75,26.75,0,0,1,0,21.34A27,27,0,0,1,85.2,112.28a52.57,52.57,0,0,0-26.33,7.08l-.63.38V85.32a26.66,26.66,0,0,1,2.21-10.67c.13-.31.28-.61.42-.91l.61-1.28-1.38-.29a6.64,6.64,0,0,1-1.17-.37,6.24,6.24,0,0,1-3.24-3.25,6.16,6.16,0,0,1,0-4.91,6.24,6.24,0,0,1,3.24-3.25,6.19,6.19,0,0,1,8.12,3.17l.58,1.29L68.75,64a27.07,27.07,0,0,1,5.78-3.42,26.86,26.86,0,0,1,21.34,0,27.15,27.15,0,0,1,5.55,3.25l1.09.82.59-1.23a6.19,6.19,0,0,1,8.05-3,6.24,6.24,0,0,1,3.24,3.25,6.16,6.16,0,0,1,0,4.91Z"/><path class="cls-2" d="M67.87,77.06a2.61,2.61,0,1,0,2.6,2.6A2.61,2.61,0,0,0,67.87,77.06Z"/><path class="cls-2" d="M102.21,77.06a2.61,2.61,0,1,0,2.61,2.6A2.6,2.6,0,0,0,102.21,77.06Z"/><path class="cls-2" d="M88.88,88.65H81.2a1.88,1.88,0,0,0-1.47,3.06l1.43,1.78,2.41,3a1.84,1.84,0,0,0,.88.59v3.79A4.4,4.4,0,0,1,82,99.93a2.25,2.25,0,0,0,.87,1.92,3.3,3.3,0,0,0,2.11.73,3.25,3.25,0,0,0,2.1-.72A2.31,2.31,0,0,0,88,99.93a4.5,4.5,0,0,1-2.47.95V97.14a1.86,1.86,0,0,0,1-.64l2.41-3,1.43-1.78A1.88,1.88,0,0,0,88.88,88.65Z"/><path class="cls-2" d="M50.55,33.69a7.72,7.72,0,0,0-3.27-2.34,7.74,7.74,0,0,0-7.66,1.24,7.66,7.66,0,0,0-2.34,3.27,7.86,7.86,0,0,0-.41,4,7.72,7.72,0,0,0,1.65,3.67l7.59,9.29,2.74-2.24a4.1,4.1,0,0,1-.79-1.52,4.22,4.22,0,0,1,.31-3.1,4.28,4.28,0,0,1,1.08-1.33,7.72,7.72,0,0,0,2.34-3.27,7.74,7.74,0,0,0-1.24-7.66Zm-2.26,6.86a4.17,4.17,0,0,1-1.08,1.33,7.83,7.83,0,0,0-2.35,3.27c0,.12-.09.25-.13.38l-3.47-4.25a4.1,4.1,0,0,1-.79-1.52,4.22,4.22,0,0,1,.31-3.1,4.17,4.17,0,0,1,1.08-1.33,4.1,4.1,0,0,1,1.52-.79,4.22,4.22,0,0,1,3.1.31,4.28,4.28,0,0,1,1.33,1.08,4.1,4.1,0,0,1,.79,1.52A4.27,4.27,0,0,1,48.29,40.55Z"/><path class="cls-2" d="M72.63,25a7.79,7.79,0,0,0-5.76-5.21,7.53,7.53,0,0,0-4,.19,7.71,7.71,0,0,0-3.38,2.18,7.84,7.84,0,0,0-1.84,3.57,7.63,7.63,0,0,0,.2,4l1.29,4a7.71,7.71,0,0,0,2.18,3.38A7.84,7.84,0,0,0,64.88,39a7.77,7.77,0,0,0,9-10Zm-1.9,6.81a4.24,4.24,0,0,1-1.43,2.78,4.22,4.22,0,0,1-3.19,1,4.27,4.27,0,0,1-3.62-2.92l-1.29-4A4.3,4.3,0,0,1,61,27a4.24,4.24,0,0,1,1.43-2.77,4.22,4.22,0,0,1,6,.4,4.12,4.12,0,0,1,.84,1.49l1.29,4A4.14,4.14,0,0,1,70.73,31.85Z"/><path class="cls-2" d="M86,24.36a7.69,7.69,0,0,0-1.65-4.84,7.91,7.91,0,0,0-1.82-1.69l-.35-.22a7.68,7.68,0,0,0-2.2-.88l0,3.7a4.23,4.23,0,0,1,2.19,2.23,4.4,4.4,0,0,1,.33,1.67l-.11,12,9.71.09,0-3.54L86,32.83Z"/><path class="cls-2" d="M114.63,27A7.79,7.79,0,0,0,113,23.33,7.67,7.67,0,0,0,109.67,21a7.78,7.78,0,0,0-10,4.59l-1.46,4a7.55,7.55,0,0,0-.37,4,7.87,7.87,0,0,0,1.67,3.65,7.79,7.79,0,0,0,3.28,2.33l7.29,2.69L114.26,31A7.65,7.65,0,0,0,114.63,27ZM111,29.75,108,37.69l-4-1.47a4.26,4.26,0,0,1-2.5-5.44l1.47-4a4.16,4.16,0,0,1,.91-1.45,4.24,4.24,0,0,1,2.84-1.31,4.15,4.15,0,0,1,1.69.26,4.32,4.32,0,0,1,1.45.9,4.27,4.27,0,0,1,1,4.53Z"/><path class="cls-2" d="M133,35.14a7.68,7.68,0,0,0-3.59-1.82,7.91,7.91,0,0,0-4,.22,7.82,7.82,0,0,0-3.37,2.19l-8,8.93L116.67,47a4.2,4.2,0,0,1,1.38-1,4.26,4.26,0,0,1,3.12-.17,4.57,4.57,0,0,1,.92.44l-2.79,3.1,2.64,2.37,3.18-3.56a7.78,7.78,0,0,0,1.11.33,7.9,7.9,0,0,0,4-.22,7.75,7.75,0,0,0,5.19-5.78,7.8,7.8,0,0,0-.22-4A7.7,7.7,0,0,0,133,35.14Zm-1.18,7.13a4.15,4.15,0,0,1-.86,1.47,4.23,4.23,0,0,1-4.49,1.19,4.35,4.35,0,0,1-1.48-.86,7.68,7.68,0,0,0-3.59-1.82l-.4-.07,3.66-4.09a4.2,4.2,0,0,1,1.38-1,4.24,4.24,0,0,1,4.6.69,4.2,4.2,0,0,1,1,1.38A4.26,4.26,0,0,1,131.84,42.27Z"/><path class="cls-2" d="M22.45,88.57a2.9,2.9,0,0,0,1.46-.4A3,3,0,0,0,25,87.1a2.95,2.95,0,0,0,0-2.93,2.85,2.85,0,0,0-1.08-1.07,2.92,2.92,0,0,0-4.39,2.53v.74h1.33v-.74A1.69,1.69,0,0,1,21,85a1.59,1.59,0,0,1,.84-.83,1.45,1.45,0,0,1,.63-.13,1.48,1.48,0,0,1,.63.13,1.6,1.6,0,0,1,.83.83,1.51,1.51,0,0,1,0,1.27,1.6,1.6,0,0,1-.83.83,1.65,1.65,0,0,1-.63.13,2.93,2.93,0,0,0-2.93,2.93h5.86V88.83h-3.8a.92.92,0,0,1,.24-.13A1.45,1.45,0,0,1,22.45,88.57Z"/><path class="cls-2" d="M32.06,83.1a2.9,2.9,0,0,0-2.94,0,2.92,2.92,0,0,0-1.46,2.53v1.6a3,3,0,0,0,.39,1.47,3,3,0,0,0,1.07,1.07,3,3,0,0,0,2.94,0,3,3,0,0,0,1.07-1.07,3,3,0,0,0,.39-1.47v-1.6a2.92,2.92,0,0,0-1.46-2.53Zm.13,4.13a1.61,1.61,0,0,1-.13.63,1.57,1.57,0,0,1-.84.84,1.61,1.61,0,0,1-.63.13,1.6,1.6,0,0,1-1.47-1,1.61,1.61,0,0,1-.13-.63v-1.6a1.69,1.69,0,0,1,.13-.63,1.66,1.66,0,0,1,.84-.83,1.48,1.48,0,0,1,.63-.13,1.45,1.45,0,0,1,.63.13,1.59,1.59,0,0,1,.84.83,1.69,1.69,0,0,1,.13.63Z"/><path class="cls-2" d="M141.28,88.57a2.91,2.91,0,0,0,1.47-.4,3,3,0,0,0,1.07-1.07,2.92,2.92,0,0,0-4-4,2.75,2.75,0,0,0-1.07,1.07,2.81,2.81,0,0,0-.4,1.46v.74h1.34v-.74a1.51,1.51,0,0,1,.13-.63,1.6,1.6,0,0,1,.83-.83,1.48,1.48,0,0,1,.63-.13,1.45,1.45,0,0,1,.63.13,1.59,1.59,0,0,1,.84.83,1.62,1.62,0,0,1,0,1.27,1.59,1.59,0,0,1-.84.83,1.61,1.61,0,0,1-.63.13,2.9,2.9,0,0,0-1.46.4,2.75,2.75,0,0,0-1.07,1.07,2.81,2.81,0,0,0-.4,1.46h5.86V88.83h-3.8a1.41,1.41,0,0,1,.24-.13A1.48,1.48,0,0,1,141.28,88.57Z"/><path class="cls-2" d="M149.3,88.83V82.77h-1.39a1.6,1.6,0,0,1-1.47,1v1.33a2.91,2.91,0,0,0,1.47-.39l.06,0v4.19h-1.53v1.33h4.39V88.83Z"/><path class="cls-2" d="M48.12,124.42A4.52,4.52,0,0,0,46,123.16a4.6,4.6,0,0,0-2.36,0,5,5,0,0,0-2.14,1.22l-5.18,5a1.06,1.06,0,0,0,0,1.54,1,1,0,0,0,.77.34h0a1.09,1.09,0,0,0,.77-.32l2.57-2.5a4.19,4.19,0,0,0,.21,1.1,4.26,4.26,0,0,0,3,2.77,4,4,0,0,0,1,.13,4.45,4.45,0,0,0,1.25-.18A5,5,0,0,0,48,131a4.66,4.66,0,0,0,1.28-2.11,4.5,4.5,0,0,0-1.17-4.49Zm-.82,3.87a3,3,0,0,1-2,1.93,2.57,2.57,0,0,1-1.32,0,2.38,2.38,0,0,1-1.15-.69,2.33,2.33,0,0,1-.65-1.16,2.47,2.47,0,0,1,0-1.32,3.12,3.12,0,0,1,2-1.93,2.47,2.47,0,0,1,1.32,0,2.6,2.6,0,0,1,1.8,1.85A2.69,2.69,0,0,1,47.3,128.29Z"/><path class="cls-2" d="M59.86,133.39a4.46,4.46,0,0,0-2.35-.64,4.27,4.27,0,0,0-2.22.64,5,5,0,0,0-1.7,1.83,4.74,4.74,0,0,0-.65,2.4,4.42,4.42,0,0,0,.67,2.28,5,5,0,0,0,1.86,1.73h0a4.76,4.76,0,0,0,1.54.55,5.06,5.06,0,0,0,1,.1,3.86,3.86,0,0,0,.6,0,.85.85,0,0,0,.68-.46,1.07,1.07,0,0,0,0-.81,1,1,0,0,0-.47-.53,1.15,1.15,0,0,0-.71-.13,2.76,2.76,0,0,1-.84,0,2.7,2.7,0,0,1-.88-.31,2.86,2.86,0,0,1-1.09-1,2.53,2.53,0,0,1-.38-1.33A2.26,2.26,0,0,1,55,137l4.93,2.8a1,1,0,0,0,.76.11.94.94,0,0,0,.6-.47,5.32,5.32,0,0,0,.72-2.27,4,4,0,0,0-.47-2.13A4.2,4.2,0,0,0,59.86,133.39Zm.06,4.26-4-2.25a2.64,2.64,0,0,1,.37-.31,2.22,2.22,0,0,1,1.24-.41,2.59,2.59,0,0,1,1.39.38,2,2,0,0,1,1.1,2A3.17,3.17,0,0,1,59.92,137.65Z"/><path class="cls-2" d="M70.81,134.12a1,1,0,0,0-.82.07,1,1,0,0,0-.51.65L67,143.13a4,4,0,0,0-.15,1.65,2.86,2.86,0,0,0,.57,1.37,2.4,2.4,0,0,0,1.22.81h0a1.93,1.93,0,0,0,.52.08,1.44,1.44,0,0,0,.46-.08,1,1,0,0,0,.62-.65,1.15,1.15,0,0,0,0-.8.93.93,0,0,0-.61-.5l-.38-.12s-.18-.05-.24-.32a1.65,1.65,0,0,1,0-.84l2.45-8.29a1.08,1.08,0,0,0-.07-.83A1,1,0,0,0,70.81,134.12Z"/><path class="cls-2" d="M88.89,140.27a3.43,3.43,0,0,0-1.74-.44,4.11,4.11,0,0,0-2,.47,3.72,3.72,0,0,0-.8.6,3,3,0,0,0-.77-.65,3.45,3.45,0,0,0-1.74-.43,3.49,3.49,0,0,0-1.81.47l-.25.17a.72.72,0,0,0-.18-.25,1,1,0,0,0-.78-.31,1.12,1.12,0,0,0-.77.3,1,1,0,0,0-.32.78l0,7.05a1,1,0,0,0,.3.77,1.06,1.06,0,0,0,.78.32,1.24,1.24,0,0,0,.79-.31,1.08,1.08,0,0,0,.3-.77v-4.51a1.76,1.76,0,0,1,.47-1.22,1.63,1.63,0,0,1,2.24-.07,1.72,1.72,0,0,1,.41,1.28L83,148a1.08,1.08,0,0,0,1.09,1.1h0a1.2,1.2,0,0,0,.78-.32,1.06,1.06,0,0,0,.31-.77v-4.5a1.76,1.76,0,0,1,.46-1.23,1.57,1.57,0,0,1,1.15-.47,1.48,1.48,0,0,1,1.09.4,1.75,1.75,0,0,1,.4,1.28l0,4.53a1.1,1.1,0,0,0,.31.78,1.06,1.06,0,0,0,.78.31h0a1.06,1.06,0,0,0,.79-.31,1.11,1.11,0,0,0,.3-.77v-4.53a4.29,4.29,0,0,0-.41-2A2.93,2.93,0,0,0,88.89,140.27Z"/><path class="cls-2" d="M105.8,143a.92.92,0,0,0-.71,0,1.19,1.19,0,0,0-.57.43,3,3,0,0,1-1.42,1,2.92,2.92,0,0,1-1.51.1,2.59,2.59,0,0,1-1.23-.63,2.37,2.37,0,0,1-.41-.48l5.41-1.71a1,1,0,0,0,.67-1.23,5.3,5.3,0,0,0-1.18-2.07,3.74,3.74,0,0,0-1.88-1.11,4.3,4.3,0,0,0-2.34.12,4.73,4.73,0,0,0-2.06,1.28,4.21,4.21,0,0,0-1,2.07,5,5,0,0,0,.17,2.49A4.66,4.66,0,0,0,99,145.32a4.45,4.45,0,0,0,2.13,1.07,4.5,4.5,0,0,0,.9.08,5.23,5.23,0,0,0,1.63-.26h0a5,5,0,0,0,1.46-.76,4.48,4.48,0,0,0,1.13-1.13.83.83,0,0,0,.13-.8A1,1,0,0,0,105.8,143Zm-6.35-1.8A2.25,2.25,0,0,1,100,140a2.63,2.63,0,0,1,1.22-.76,2.54,2.54,0,0,1,.74-.12,1.68,1.68,0,0,1,.5.07,2.08,2.08,0,0,1,1,.61,2.15,2.15,0,0,1,.36.48l-4.37,1.38A3.59,3.59,0,0,1,99.45,141.15Z"/><path class="cls-2" d="M119.44,132.33a4.81,4.81,0,0,0-1.75-1.66,3.67,3.67,0,0,0-2-.41,4.37,4.37,0,0,0-2,.74,4.18,4.18,0,0,0-1.62,2,1,1,0,0,0-.42-.2,1.08,1.08,0,0,0-.82.19,1,1,0,0,0-.48.67,1,1,0,0,0,.18.83l3.92,5.87a1.05,1.05,0,0,0,.69.47.86.86,0,0,0,.22,0,1.14,1.14,0,0,0,1.08-.89,1.09,1.09,0,0,0-.18-.81l-2.49-3.72a1.54,1.54,0,0,1-.26-.86,2,2,0,0,1,.28-.95,2.4,2.4,0,0,1,.76-.8,2.67,2.67,0,0,1,1.11-.44,1.77,1.77,0,0,1,1.05.18,2.67,2.67,0,0,1,1,.95l2.16,3.23a1,1,0,0,0,.69.47,1.05,1.05,0,0,0,.82-.17,1,1,0,0,0,.47-.69,1,1,0,0,0-.17-.81Z"/><path class="cls-2" d="M124.12,123.35a1,1,0,0,0-.78-.3,1.05,1.05,0,0,0-.75.36,1.12,1.12,0,0,0-.31.77,1.07,1.07,0,0,0,.37.77l5.16,4.79a1.08,1.08,0,0,0,.74.3h0a1.05,1.05,0,0,0,.76-.36,1,1,0,0,0,.3-.79,1.07,1.07,0,0,0-.36-.75Z"/><path class="cls-2" d="M121.89,121a1.26,1.26,0,0,0-1-.34,1.29,1.29,0,0,0-.92.41,1.34,1.34,0,0,0,.07,1.88,1.29,1.29,0,0,0,.9.35H121a1.23,1.23,0,0,0,.92-.42h0a1.22,1.22,0,0,0,.35-.94A1.27,1.27,0,0,0,121.89,121Z"/></svg>